<svg width="1134" height="128" viewBox="0 0 1134 128" fill="none" xmlns="http://www.w3.org/2000/svg">
<path d="M112.803 20.4316V39.6316H77.9756L112.803 20.4316Z" fill="#D9E7FE"/>
<path d="M73.7119 11.7238C73.7119 11.3543 74.0115 11.0547 74.381 11.0547H114.309C114.679 11.0547 114.978 11.3543 114.978 11.7238V39.1908H73.7119V11.7238Z" fill="#69A2FE"/>
<path d="M69.4917 39.1914H119.199V41.6047C119.199 42.3438 118.6 42.9429 117.861 42.9429H70.8299C70.0908 42.9429 69.4917 42.3438 69.4917 41.6047V39.1914Z" fill="#3883FA"/>
<path d="M87.7803 38.7227V39.3946C87.7803 40.3184 88.5292 41.0673 89.453 41.0673H98.7688C99.6926 41.0673 100.442 40.3184 100.442 39.3946V38.7227" stroke="#00368A" stroke-width="0.669093" stroke-linecap="round"/>
<path d="M75.5879 13.5988C75.5879 13.2293 75.8875 12.9297 76.257 12.9297H112.434C112.803 12.9297 113.103 13.2293 113.103 13.5988V16.2122H75.5879V13.5988Z" fill="#00368A"/>
<rect x="75.5879" y="16.2129" width="37.5148" height="22.9778" fill="#F5F8FF"/>
<ellipse cx="94.5796" cy="24.4809" rx="1.17234" ry="1.17234" fill="#1E6DEB"/>
<circle cx="94.5796" cy="29.9223" r="1.17234" fill="#1E6DEB"/>
<path d="M98.0967 24.2461L108.413 24.2461" stroke="#3883FA" stroke-width="1.00364" stroke-linecap="round"/>
<path d="M98.0967 30.1562L108.413 30.1563" stroke="#3883FA" stroke-width="1.00364" stroke-linecap="round"/>
<rect x="78.8701" y="21.8398" width="11.2544" height="11.2544" rx="0.334547" fill="#FEEDC8"/>
<ellipse cx="84.4973" cy="25.5906" rx="1.87574" ry="1.87574" fill="#F8B256"/>
<path d="M84.4976 28.0527C82.4257 28.0527 80.7461 29.7323 80.7461 31.8042H88.2491C88.2491 29.7323 86.5695 28.0527 84.4976 28.0527Z" fill="#F8B256"/>
<rect y="56" width="189" height="40" rx="8" stroke="#D7DAE8"/>
<path d="M37.4062 71.7969C36.8177 71.7969 36.2891 71.901 35.8203 72.1094C35.3568 72.3125 34.9635 72.612 34.6406 73.0078C34.3177 73.3984 34.0703 73.8698 33.8984 74.4219C33.7266 74.974 33.6406 75.5964 33.6406 76.2891C33.6406 77.2109 33.776 78.0078 34.0469 78.6797C34.3229 79.3516 34.737 79.8698 35.2891 80.2344C35.8411 80.599 36.5365 80.7812 37.375 80.7812C37.875 80.7812 38.3516 80.737 38.8047 80.6484C39.263 80.5547 39.7188 80.4349 40.1719 80.2891V81.6641C39.7344 81.8307 39.2812 81.9531 38.8125 82.0312C38.349 82.1146 37.8047 82.1562 37.1797 82.1562C36.013 82.1562 35.0417 81.9141 34.2656 81.4297C33.4948 80.9453 32.9193 80.2656 32.5391 79.3906C32.1589 78.5104 31.9688 77.474 31.9688 76.2812C31.9688 75.4167 32.0885 74.6276 32.3281 73.9141C32.5677 73.1953 32.9193 72.5755 33.3828 72.0547C33.8464 71.5286 34.4141 71.125 35.0859 70.8438C35.763 70.5573 36.5417 70.4141 37.4219 70.4141C37.9948 70.4141 38.5521 70.4766 39.0938 70.6016C39.6406 70.7214 40.1432 70.8906 40.6016 71.1094L40.0078 72.4453C39.6276 72.2734 39.2188 72.1224 38.7812 71.9922C38.349 71.862 37.8906 71.7969 37.4062 71.7969ZM49.9688 77.6797C49.9688 78.388 49.875 79.0208 49.6875 79.5781C49.5052 80.1302 49.237 80.599 48.8828 80.9844C48.5339 81.3646 48.112 81.6562 47.6172 81.8594C47.1224 82.0573 46.5625 82.1562 45.9375 82.1562C45.3542 82.1562 44.8177 82.0573 44.3281 81.8594C43.8438 81.6562 43.4245 81.3646 43.0703 80.9844C42.7161 80.599 42.4427 80.1302 42.25 79.5781C42.0573 79.0208 41.9609 78.388 41.9609 77.6797C41.9609 76.737 42.1224 75.9349 42.4453 75.2734C42.7682 74.6068 43.2292 74.1016 43.8281 73.7578C44.4323 73.4089 45.151 73.2344 45.9844 73.2344C46.776 73.2344 47.4714 73.4089 48.0703 73.7578C48.6693 74.1068 49.1354 74.612 49.4688 75.2734C49.8021 75.9349 49.9688 76.737 49.9688 77.6797ZM43.5703 77.6797C43.5703 78.3411 43.6536 78.9115 43.8203 79.3906C43.9922 79.8646 44.2526 80.2292 44.6016 80.4844C44.9557 80.7396 45.4115 80.8672 45.9688 80.8672C46.5156 80.8672 46.9661 80.7396 47.3203 80.4844C47.6745 80.2292 47.9349 79.8646 48.1016 79.3906C48.2682 78.9115 48.3516 78.3411 48.3516 77.6797C48.3516 77.0234 48.2682 76.4609 48.1016 75.9922C47.9349 75.5234 47.6745 75.1641 47.3203 74.9141C46.9714 74.6641 46.5156 74.5391 45.9531 74.5391C45.1302 74.5391 44.526 74.8151 44.1406 75.3672C43.7604 75.9141 43.5703 76.6849 43.5703 77.6797ZM61.6875 73.2344C62.6406 73.2344 63.3594 73.4844 63.8438 73.9844C64.3333 74.4792 64.5781 75.2734 64.5781 76.3672V82H63.0234V76.5625C63.0234 75.8854 62.8828 75.3776 62.6016 75.0391C62.3255 74.7005 61.9115 74.5312 61.3594 74.5312C60.5781 74.5312 60.013 74.7682 59.6641 75.2422C59.3203 75.7109 59.1484 76.401 59.1484 77.3125V82H57.5859V76.5625C57.5859 76.1094 57.5234 75.7344 57.3984 75.4375C57.2734 75.1354 57.0885 74.9089 56.8438 74.7578C56.599 74.6068 56.2891 74.5312 55.9141 74.5312C55.3776 74.5312 54.9479 74.6484 54.625 74.8828C54.3073 75.112 54.0755 75.4531 53.9297 75.9062C53.7891 76.3594 53.7188 76.9141 53.7188 77.5703V82H52.1484V73.3906H53.3906L53.6172 74.5781H53.7031C53.875 74.2812 54.0911 74.0339 54.3516 73.8359C54.6172 73.638 54.9115 73.4896 55.2344 73.3906C55.5573 73.2865 55.8984 73.2344 56.2578 73.2344C56.9036 73.2344 57.4479 73.3516 57.8906 73.5859C58.3333 73.8203 58.6589 74.1771 58.8672 74.6562H58.9688C59.2448 74.1719 59.625 73.8151 60.1094 73.5859C60.599 73.3516 61.125 73.2344 61.6875 73.2344ZM71.4297 73.2344C72.4766 73.2344 73.3125 73.6068 73.9375 74.3516C74.5677 75.0911 74.8828 76.1979 74.8828 77.6719C74.8828 78.651 74.737 79.474 74.4453 80.1406C74.1589 80.8021 73.7526 81.3047 73.2266 81.6484C72.7057 81.987 72.0938 82.1562 71.3906 82.1562C70.9479 82.1562 70.5599 82.099 70.2266 81.9844C69.8932 81.8646 69.6068 81.7083 69.3672 81.5156C69.1328 81.3177 68.9349 81.1068 68.7734 80.8828H68.6719C68.6927 81.0859 68.7135 81.3229 68.7344 81.5938C68.7604 81.8594 68.7734 82.099 68.7734 82.3125V85.8281H67.1953V73.3906H68.4844L68.6953 74.625H68.7734C68.9349 74.3698 69.1328 74.138 69.3672 73.9297C69.6068 73.7161 69.8958 73.5469 70.2344 73.4219C70.5729 73.2969 70.9714 73.2344 71.4297 73.2344ZM71.0703 74.5312C70.5182 74.5312 70.0755 74.6406 69.7422 74.8594C69.4141 75.0729 69.1719 75.3932 69.0156 75.8203C68.8646 76.2474 68.7839 76.7839 68.7734 77.4297V77.6797C68.7734 78.3672 68.8464 78.9479 68.9922 79.4219C69.138 79.8906 69.3802 80.25 69.7188 80.5C70.0573 80.7448 70.513 80.8672 71.0859 80.8672C71.5755 80.8672 71.9818 80.7344 72.3047 80.4688C72.6328 80.2031 72.875 79.8281 73.0312 79.3438C73.1927 78.8594 73.2734 78.2969 73.2734 77.6562C73.2734 76.6823 73.0938 75.9193 72.7344 75.3672C72.375 74.8099 71.8203 74.5312 71.0703 74.5312ZM78.6484 82H77.0703V69.8438H78.6484V82ZM84.6953 73.2344C85.4453 73.2344 86.0885 73.3958 86.625 73.7188C87.1615 74.0365 87.5729 74.487 87.8594 75.0703C88.1458 75.6536 88.2891 76.3411 88.2891 77.1328V78.0234H82.4453C82.4609 78.9453 82.6979 79.6536 83.1562 80.1484C83.6146 80.638 84.2578 80.8828 85.0859 80.8828C85.6328 80.8828 86.1198 80.8307 86.5469 80.7266C86.974 80.6224 87.4167 80.4688 87.875 80.2656V81.5859C87.4427 81.7839 87.0078 81.9271 86.5703 82.0156C86.138 82.1094 85.6198 82.1562 85.0156 82.1562C84.1823 82.1562 83.4505 81.9896 82.8203 81.6562C82.1953 81.3229 81.7083 80.8307 81.3594 80.1797C81.0104 79.5234 80.8359 78.7161 80.8359 77.7578C80.8359 76.8099 80.9948 76 81.3125 75.3281C81.6302 74.651 82.0781 74.1328 82.6562 73.7734C83.2344 73.4141 83.9141 73.2344 84.6953 73.2344ZM84.6875 74.4531C84.0521 74.4531 83.5417 74.6615 83.1562 75.0781C82.7708 75.4896 82.5443 76.0807 82.4766 76.8516H86.7109C86.7057 76.3776 86.6302 75.9609 86.4844 75.6016C86.3385 75.2422 86.1172 74.9609 85.8203 74.7578C85.5286 74.5547 85.151 74.4531 84.6875 74.4531ZM93.4297 80.8828C93.6536 80.8828 93.8802 80.8646 94.1094 80.8281C94.3385 80.7865 94.5365 80.7344 94.7031 80.6719V81.875C94.526 81.9531 94.2891 82.0182 93.9922 82.0703C93.7005 82.1276 93.401 82.1562 93.0938 82.1562C92.625 82.1562 92.2005 82.0755 91.8203 81.9141C91.4401 81.7526 91.1354 81.4766 90.9062 81.0859C90.6823 80.6953 90.5703 80.1536 90.5703 79.4609V74.6016H89.375V73.875L90.625 73.2969L91.1797 71.4375H92.1484V73.3906H94.6406V74.6016H92.1484V79.4375C92.1484 79.9219 92.263 80.2839 92.4922 80.5234C92.7266 80.763 93.0391 80.8828 93.4297 80.8828ZM99.8203 73.2344C100.57 73.2344 101.214 73.3958 101.75 73.7188C102.286 74.0365 102.698 74.487 102.984 75.0703C103.271 75.6536 103.414 76.3411 103.414 77.1328V78.0234H97.5703C97.5859 78.9453 97.8229 79.6536 98.2812 80.1484C98.7396 80.638 99.3828 80.8828 100.211 80.8828C100.758 80.8828 101.245 80.8307 101.672 80.7266C102.099 80.6224 102.542 80.4688 103 80.2656V81.5859C102.568 81.7839 102.133 81.9271 101.695 82.0156C101.263 82.1094 100.745 82.1562 100.141 82.1562C99.3073 82.1562 98.5755 81.9896 97.9453 81.6562C97.3203 81.3229 96.8333 80.8307 96.4844 80.1797C96.1354 79.5234 95.9609 78.7161 95.9609 77.7578C95.9609 76.8099 96.1198 76 96.4375 75.3281C96.7552 74.651 97.2031 74.1328 97.7812 73.7734C98.3594 73.4141 99.0391 73.2344 99.8203 73.2344ZM99.8125 74.4531C99.1771 74.4531 98.6667 74.6615 98.2812 75.0781C97.8958 75.4896 97.6693 76.0807 97.6016 76.8516H101.836C101.831 76.3776 101.755 75.9609 101.609 75.6016C101.464 75.2422 101.242 74.9609 100.945 74.7578C100.654 74.5547 100.276 74.4531 99.8125 74.4531ZM113.945 73.2344C114.992 73.2344 115.828 73.6068 116.453 74.3516C117.083 75.0911 117.398 76.1979 117.398 77.6719C117.398 78.651 117.253 79.474 116.961 80.1406C116.674 80.8021 116.268 81.3047 115.742 81.6484C115.221 81.987 114.609 82.1562 113.906 82.1562C113.464 82.1562 113.076 82.099 112.742 81.9844C112.409 81.8646 112.122 81.7083 111.883 81.5156C111.648 81.3177 111.451 81.1068 111.289 80.8828H111.188C111.208 81.0859 111.229 81.3229 111.25 81.5938C111.276 81.8594 111.289 82.099 111.289 82.3125V85.8281H109.711V73.3906H111L111.211 74.625H111.289C111.451 74.3698 111.648 74.138 111.883 73.9297C112.122 73.7161 112.411 73.5469 112.75 73.4219C113.089 73.2969 113.487 73.2344 113.945 73.2344ZM113.586 74.5312C113.034 74.5312 112.591 74.6406 112.258 74.8594C111.93 75.0729 111.688 75.3932 111.531 75.8203C111.38 76.2474 111.299 76.7839 111.289 77.4297V77.6797C111.289 78.3672 111.362 78.9479 111.508 79.4219C111.654 79.8906 111.896 80.25 112.234 80.5C112.573 80.7448 113.029 80.8672 113.602 80.8672C114.091 80.8672 114.497 80.7344 114.82 80.4688C115.148 80.2031 115.391 79.8281 115.547 79.3438C115.708 78.8594 115.789 78.2969 115.789 77.6562C115.789 76.6823 115.609 75.9193 115.25 75.3672C114.891 74.8099 114.336 74.5312 113.586 74.5312ZM123.727 73.2344C123.883 73.2344 124.052 73.2448 124.234 73.2656C124.417 73.2812 124.573 73.3021 124.703 73.3281L124.539 74.7891C124.414 74.7578 124.268 74.7318 124.102 74.7109C123.94 74.6901 123.789 74.6797 123.648 74.6797C123.315 74.6797 122.997 74.7422 122.695 74.8672C122.393 74.9922 122.128 75.1745 121.898 75.4141C121.669 75.6484 121.49 75.9375 121.359 76.2812C121.229 76.6198 121.164 77.0078 121.164 77.4453V82H119.586V73.3906H120.852L121.039 74.9453H121.109C121.286 74.6328 121.5 74.3464 121.75 74.0859C122.005 73.8255 122.297 73.6198 122.625 73.4688C122.958 73.3125 123.326 73.2344 123.727 73.2344ZM133.828 77.6797C133.828 78.388 133.734 79.0208 133.547 79.5781C133.365 80.1302 133.096 80.599 132.742 80.9844C132.393 81.3646 131.971 81.6562 131.477 81.8594C130.982 82.0573 130.422 82.1562 129.797 82.1562C129.214 82.1562 128.677 82.0573 128.188 81.8594C127.703 81.6562 127.284 81.3646 126.93 80.9844C126.576 80.599 126.302 80.1302 126.109 79.5781C125.917 79.0208 125.82 78.388 125.82 77.6797C125.82 76.737 125.982 75.9349 126.305 75.2734C126.628 74.6068 127.089 74.1016 127.688 73.7578C128.292 73.4089 129.01 73.2344 129.844 73.2344C130.635 73.2344 131.331 73.4089 131.93 73.7578C132.529 74.1068 132.995 74.612 133.328 75.2734C133.661 75.9349 133.828 76.737 133.828 77.6797ZM127.43 77.6797C127.43 78.3411 127.513 78.9115 127.68 79.3906C127.852 79.8646 128.112 80.2292 128.461 80.4844C128.815 80.7396 129.271 80.8672 129.828 80.8672C130.375 80.8672 130.826 80.7396 131.18 80.4844C131.534 80.2292 131.794 79.8646 131.961 79.3906C132.128 78.9115 132.211 78.3411 132.211 77.6797C132.211 77.0234 132.128 76.4609 131.961 75.9922C131.794 75.5234 131.534 75.1641 131.18 74.9141C130.831 74.6641 130.375 74.5391 129.812 74.5391C128.99 74.5391 128.385 74.8151 128 75.3672C127.62 75.9141 127.43 76.6849 127.43 77.6797ZM140.078 74.6016H137.961V82H136.391V74.6016H134.93V73.8438L136.391 73.3672V72.7734C136.391 72.0495 136.503 71.4688 136.727 71.0312C136.951 70.5885 137.271 70.2656 137.688 70.0625C138.109 69.8594 138.62 69.7578 139.219 69.7578C139.578 69.7578 139.906 69.7891 140.203 69.8516C140.505 69.9141 140.766 69.9844 140.984 70.0625L140.578 71.2656C140.401 71.2083 140.203 71.1562 139.984 71.1094C139.766 71.0573 139.534 71.0312 139.289 71.0312C138.836 71.0312 138.5 71.1771 138.281 71.4688C138.068 71.7604 137.961 72.2005 137.961 72.7891V73.3906H140.078V74.6016ZM143.164 73.3906V82H141.594V73.3906H143.164ZM142.391 70.1328C142.641 70.1328 142.854 70.2057 143.031 70.3516C143.214 70.4974 143.305 70.7344 143.305 71.0625C143.305 71.3906 143.214 71.6302 143.031 71.7812C142.854 71.9271 142.641 72 142.391 72C142.135 72 141.919 71.9271 141.742 71.7812C141.57 71.6302 141.484 71.3906 141.484 71.0625C141.484 70.7344 141.57 70.4974 141.742 70.3516C141.919 70.2057 142.135 70.1328 142.391 70.1328ZM147.43 82H145.852V69.8438H147.43V82ZM153.477 73.2344C154.227 73.2344 154.87 73.3958 155.406 73.7188C155.943 74.0365 156.354 74.487 156.641 75.0703C156.927 75.6536 157.07 76.3411 157.07 77.1328V78.0234H151.227C151.242 78.9453 151.479 79.6536 151.938 80.1484C152.396 80.638 153.039 80.8828 153.867 80.8828C154.414 80.8828 154.901 80.8307 155.328 80.7266C155.755 80.6224 156.198 80.4688 156.656 80.2656V81.5859C156.224 81.7839 155.789 81.9271 155.352 82.0156C154.919 82.1094 154.401 82.1562 153.797 82.1562C152.964 82.1562 152.232 81.9896 151.602 81.6562C150.977 81.3229 150.49 80.8307 150.141 80.1797C149.792 79.5234 149.617 78.7161 149.617 77.7578C149.617 76.8099 149.776 76 150.094 75.3281C150.411 74.651 150.859 74.1328 151.438 73.7734C152.016 73.4141 152.695 73.2344 153.477 73.2344ZM153.469 74.4531C152.833 74.4531 152.323 74.6615 151.938 75.0781C151.552 75.4896 151.326 76.0807 151.258 76.8516H155.492C155.487 76.3776 155.411 75.9609 155.266 75.6016C155.12 75.2422 154.898 74.9609 154.602 74.7578C154.31 74.5547 153.932 74.4531 153.469 74.4531Z" fill="#616D92"/>
<rect x="84.5" y="106" width="20" height="20" rx="10" fill="#D7DAE8"/>
<path d="M95.4619 120H94.3096V115.405C94.3096 115.252 94.3112 115.099 94.3145 114.946C94.3177 114.793 94.321 114.644 94.3242 114.497C94.3307 114.351 94.3389 114.211 94.3486 114.077C94.2803 114.152 94.1956 114.233 94.0947 114.321C93.9971 114.409 93.8929 114.5 93.7822 114.595L92.9619 115.249L92.3857 114.521L94.5049 112.861H95.4619V120Z" fill="#363B51"/>
<path d="M104.5 116H189" stroke="#D7DAE8" stroke-width="2"/>
<path d="M189 116H205" stroke="#087C69" stroke-width="2"/>
<g clip-path="url(#clip0_3796_132267)">
<rect width="30.7532" height="39.6" rx="1.86045" transform="matrix(-0.992366 0.123326 0.123326 0.992366 298.704 6.79492)" fill="#034FCA"/>
<path d="M303.402 44.5988L277.238 47.8503C276.219 47.977 275.289 47.2531 275.163 46.2335L271.37 15.712L300.86 24.5732L303.402 44.5988Z" fill="#002E75"/>
<path d="M296.699 10.5293C296.594 10.013 296.107 9.66582 295.584 9.73079L272.016 12.6597C271.458 12.729 271.062 13.2379 271.132 13.7958L275.155 45.8963C275.227 46.4643 275.752 46.8617 276.318 46.7755L301.924 42.8752C302.597 42.7728 302.98 42.0508 302.707 41.4279C297.836 30.3067 299.076 22.2428 296.699 10.5293Z" fill="#F5F8FF"/>
<path d="M296.976 11.68C296.976 11.5427 296.959 11.3693 296.914 11.1826L296.665 9.17168L295.41 9.32754L295.462 9.7456C296.38 9.88873 296.777 10.6 296.914 11.1826L296.976 11.68Z" fill="#034FCA"/>
<path d="M297.567 22.0574L275.254 45.9662C274.878 46.3686 275.22 47.0191 275.764 46.9383L302.211 43.0127C302.78 42.9283 303.132 42.3459 302.948 41.8013C300.46 34.4473 299.611 31.4921 298.573 22.3952C298.517 21.9009 297.906 21.6937 297.567 22.0574Z" fill="#C8DCFE"/>
<rect x="275.567" y="19.1816" width="18.4466" height="5.0887" rx="0.581596" transform="rotate(-6.47795 275.567 19.1816)" stroke="#69A2FE" stroke-width="0.92134"/>
<rect x="276.409" y="26.5938" width="18.4466" height="6.07841" rx="0.581596" transform="rotate(-6.47795 276.409 26.5938)" stroke="#69A2FE" stroke-width="0.92134"/>
<line x1="282.079" y1="16.0587" x2="287.483" y2="15.445" stroke="#69A2FE" stroke-width="0.92134" stroke-linecap="round"/>
<line x1="0.46067" y1="-0.46067" x2="8.44457" y2="-0.46067" transform="matrix(0.993615 -0.112821 0.11282 0.993615 279.299 37.1133)" stroke="#5093FD" stroke-width="0.92134" stroke-linecap="round"/>
<line x1="290.449" y1="35.3829" x2="293.957" y2="34.9845" stroke="#5093FD" stroke-width="0.92134" stroke-linecap="round"/>
<line x1="279.992" y1="41.1309" x2="283.5" y2="40.7325" stroke="#5093FD" stroke-width="0.92134" stroke-linecap="round"/>
<path d="M266.822 41.545C266.442 42.638 264.625 44.5667 263.132 46.0235C262.083 47.0472 262.133 48.803 263.314 49.6701C265.237 51.081 266.977 52.0688 269.662 52.4059C270.518 52.5133 271.332 52.0521 271.731 51.2872C272.128 50.523 272.636 49.4908 273.055 48.4491C273.88 46.3963 278.477 43.9775 279.482 42.5089C280.486 41.0402 281.987 36.0207 281.987 36.0207L287.754 29.6541C287.965 29.4214 287.951 29.0654 287.702 28.8753C287.129 28.4393 286.076 27.7904 285.105 28.0094C282.711 28.5497 280.263 30.9847 279.097 32.2836C278.787 32.6285 278.2 32.5194 278.054 32.0798L277.401 30.125C277.315 29.8698 277.32 29.5922 277.436 29.3493C277.717 28.7604 278.34 27.6487 279.223 27.1876C280.086 26.7372 282.066 27.6348 283.647 27.0011C284.302 26.7388 284.972 26.0707 285.417 25.5593C285.683 25.2538 285.524 24.7983 285.131 24.7015C283.39 24.2727 279.312 23.3572 277.703 23.7574C275.632 24.2726 270.877 26.8263 269.37 29.0292C267.863 31.2321 267.49 39.627 266.822 41.545Z" fill="#D68B3E"/>
<path d="M276.729 33.3031L274.644 27.7812L277.434 28.5582C277.434 28.5582 277.534 30.428 278.149 31.388C278.257 31.5579 278.413 31.7481 278.562 31.916C278.789 32.1717 278.778 32.5692 278.519 32.7923L277.653 33.5382C277.347 33.8019 276.872 33.681 276.729 33.3031Z" fill="#90421C"/>
<path d="M263.399 28.4452C263.08 28.4809 262.85 28.7685 262.886 29.0878L263.011 30.2057C263.046 30.5249 263.334 30.7548 263.653 30.7191L286.831 28.1297L289.545 26.9552C289.808 26.8413 289.765 26.4555 289.483 26.4025L286.577 25.8558L263.399 28.4452Z" fill="#00368A"/>
<rect x="274.387" y="7.95703" width="17.767" height="6.1501" rx="1.16319" transform="rotate(-7.04965 274.387 7.95703)" fill="#69A2FE"/>
<circle cx="283.204" cy="6.86609" r="3.41672" transform="rotate(-7.04965 283.204 6.86609)" fill="#69A2FE"/>
<ellipse cx="283.204" cy="6.86636" rx="1.36669" ry="1.36669" transform="rotate(-7.04964 283.204 6.86636)" fill="white"/>
<path d="M274.807 11.3477L292.44 9.16713L292.632 10.7254C292.711 11.363 292.258 11.9438 291.621 12.0226L276.297 13.9176C275.659 13.9965 275.079 13.5435 275 12.906L274.807 11.3477Z" fill="#1D74F5"/>
</g>
<rect x="214.5" y="56" width="138" height="40" rx="8" stroke="#D7DAE8"/>
<path d="M238.555 78.9297C238.555 79.6068 238.385 80.1875 238.047 80.6719C237.714 81.151 237.242 81.5182 236.633 81.7734C236.023 82.0286 235.299 82.1562 234.461 82.1562C234.039 82.1562 233.635 82.1328 233.25 82.0859C232.87 82.0443 232.516 81.9818 232.188 81.8984C231.859 81.8151 231.562 81.7109 231.297 81.5859V80.0703C231.729 80.2474 232.229 80.4141 232.797 80.5703C233.365 80.7214 233.951 80.7969 234.555 80.7969C235.081 80.7969 235.521 80.7266 235.875 80.5859C236.234 80.4401 236.505 80.237 236.688 79.9766C236.87 79.7161 236.961 79.4036 236.961 79.0391C236.961 78.6745 236.872 78.3698 236.695 78.125C236.518 77.875 236.237 77.6458 235.852 77.4375C235.471 77.2292 234.971 77.0078 234.352 76.7734C233.919 76.6172 233.526 76.4401 233.172 76.2422C232.818 76.0391 232.51 75.8073 232.25 75.5469C231.995 75.2865 231.797 74.9818 231.656 74.6328C231.516 74.2786 231.445 73.8724 231.445 73.4141C231.445 72.7839 231.599 72.2448 231.906 71.7969C232.219 71.349 232.654 71.0078 233.211 70.7734C233.768 70.5339 234.414 70.4141 235.148 70.4141C235.753 70.4141 236.315 70.474 236.836 70.5938C237.362 70.7135 237.862 70.8776 238.336 71.0859L237.828 72.4141C237.385 72.2318 236.94 72.0833 236.492 71.9688C236.044 71.8542 235.581 71.7969 235.102 71.7969C234.659 71.7969 234.284 71.862 233.977 71.9922C233.674 72.1224 233.443 72.3073 233.281 72.5469C233.125 72.7865 233.047 73.0703 233.047 73.3984C233.047 73.7682 233.13 74.0755 233.297 74.3203C233.464 74.5651 233.727 74.7865 234.086 74.9844C234.445 75.1823 234.914 75.3932 235.492 75.6172C236.143 75.8672 236.695 76.1328 237.148 76.4141C237.607 76.6953 237.956 77.0339 238.195 77.4297C238.435 77.8255 238.555 78.3255 238.555 78.9297ZM243.617 80.8828C243.841 80.8828 244.068 80.8646 244.297 80.8281C244.526 80.7865 244.724 80.7344 244.891 80.6719V81.875C244.714 81.9531 244.477 82.0182 244.18 82.0703C243.888 82.1276 243.589 82.1562 243.281 82.1562C242.812 82.1562 242.388 82.0755 242.008 81.9141C241.628 81.7526 241.323 81.4766 241.094 81.0859C240.87 80.6953 240.758 80.1536 240.758 79.4609V74.6016H239.562V73.875L240.812 73.2969L241.367 71.4375H242.336V73.3906H244.828V74.6016H242.336V79.4375C242.336 79.9219 242.451 80.2839 242.68 80.5234C242.914 80.763 243.227 80.8828 243.617 80.8828ZM249.93 73.2422C250.992 73.2422 251.786 73.4792 252.312 73.9531C252.839 74.4219 253.102 75.1641 253.102 76.1797V82H251.977L251.672 80.75H251.609C251.37 81.0625 251.12 81.3229 250.859 81.5312C250.599 81.7396 250.297 81.8958 249.953 82C249.615 82.1042 249.201 82.1562 248.711 82.1562C248.19 82.1562 247.727 82.0625 247.32 81.875C246.914 81.6875 246.594 81.4062 246.359 81.0312C246.13 80.651 246.016 80.1693 246.016 79.5859C246.016 78.7109 246.352 78.0469 247.023 77.5938C247.695 77.1406 248.714 76.8932 250.078 76.8516L251.562 76.7891V76.3047C251.562 75.6328 251.411 75.1589 251.109 74.8828C250.812 74.6068 250.396 74.4688 249.859 74.4688C249.417 74.4688 248.992 74.5339 248.586 74.6641C248.18 74.7891 247.789 74.9401 247.414 75.1172L246.914 73.9766C247.32 73.7682 247.781 73.5938 248.297 73.4531C248.818 73.3125 249.362 73.2422 249.93 73.2422ZM251.547 77.8203L250.344 77.875C249.349 77.9115 248.648 78.0781 248.242 78.375C247.841 78.6667 247.641 79.0755 247.641 79.6016C247.641 80.0599 247.779 80.3958 248.055 80.6094C248.331 80.8229 248.695 80.9297 249.148 80.9297C249.846 80.9297 250.419 80.7344 250.867 80.3438C251.32 79.9479 251.547 79.3646 251.547 78.5938V77.8203ZM259.867 73.2344C260.023 73.2344 260.193 73.2448 260.375 73.2656C260.557 73.2812 260.714 73.3021 260.844 73.3281L260.68 74.7891C260.555 74.7578 260.409 74.7318 260.242 74.7109C260.081 74.6901 259.93 74.6797 259.789 74.6797C259.456 74.6797 259.138 74.7422 258.836 74.8672C258.534 74.9922 258.268 75.1745 258.039 75.4141C257.81 75.6484 257.63 75.9375 257.5 76.2812C257.37 76.6198 257.305 77.0078 257.305 77.4453V82H255.727V73.3906H256.992L257.18 74.9453H257.25C257.427 74.6328 257.641 74.3464 257.891 74.0859C258.146 73.8255 258.438 73.6198 258.766 73.4688C259.099 73.3125 259.466 73.2344 259.867 73.2344ZM265.445 80.8828C265.669 80.8828 265.896 80.8646 266.125 80.8281C266.354 80.7865 266.552 80.7344 266.719 80.6719V81.875C266.542 81.9531 266.305 82.0182 266.008 82.0703C265.716 82.1276 265.417 82.1562 265.109 82.1562C264.641 82.1562 264.216 82.0755 263.836 81.9141C263.456 81.7526 263.151 81.4766 262.922 81.0859C262.698 80.6953 262.586 80.1536 262.586 79.4609V74.6016H261.391V73.875L262.641 73.2969L263.195 71.4375H264.164V73.3906H266.656V74.6016H264.164V79.4375C264.164 79.9219 264.279 80.2839 264.508 80.5234C264.742 80.763 265.055 80.8828 265.445 80.8828ZM275.914 73.2422C276.977 73.2422 277.771 73.4792 278.297 73.9531C278.823 74.4219 279.086 75.1641 279.086 76.1797V82H277.961L277.656 80.75H277.594C277.354 81.0625 277.104 81.3229 276.844 81.5312C276.583 81.7396 276.281 81.8958 275.938 82C275.599 82.1042 275.185 82.1562 274.695 82.1562C274.174 82.1562 273.711 82.0625 273.305 81.875C272.898 81.6875 272.578 81.4062 272.344 81.0312C272.115 80.651 272 80.1693 272 79.5859C272 78.7109 272.336 78.0469 273.008 77.5938C273.68 77.1406 274.698 76.8932 276.062 76.8516L277.547 76.7891V76.3047C277.547 75.6328 277.396 75.1589 277.094 74.8828C276.797 74.6068 276.38 74.4688 275.844 74.4688C275.401 74.4688 274.977 74.5339 274.57 74.6641C274.164 74.7891 273.773 74.9401 273.398 75.1172L272.898 73.9766C273.305 73.7682 273.766 73.5938 274.281 73.4531C274.802 73.3125 275.346 73.2422 275.914 73.2422ZM277.531 77.8203L276.328 77.875C275.333 77.9115 274.633 78.0781 274.227 78.375C273.826 78.6667 273.625 79.0755 273.625 79.6016C273.625 80.0599 273.763 80.3958 274.039 80.6094C274.315 80.8229 274.68 80.9297 275.133 80.9297C275.831 80.9297 276.404 80.7344 276.852 80.3438C277.305 79.9479 277.531 79.3646 277.531 78.5938V77.8203ZM285.945 73.2344C286.992 73.2344 287.828 73.6068 288.453 74.3516C289.083 75.0911 289.398 76.1979 289.398 77.6719C289.398 78.651 289.253 79.474 288.961 80.1406C288.674 80.8021 288.268 81.3047 287.742 81.6484C287.221 81.987 286.609 82.1562 285.906 82.1562C285.464 82.1562 285.076 82.099 284.742 81.9844C284.409 81.8646 284.122 81.7083 283.883 81.5156C283.648 81.3177 283.451 81.1068 283.289 80.8828H283.188C283.208 81.0859 283.229 81.3229 283.25 81.5938C283.276 81.8594 283.289 82.099 283.289 82.3125V85.8281H281.711V73.3906H283L283.211 74.625H283.289C283.451 74.3698 283.648 74.138 283.883 73.9297C284.122 73.7161 284.411 73.5469 284.75 73.4219C285.089 73.2969 285.487 73.2344 285.945 73.2344ZM285.586 74.5312C285.034 74.5312 284.591 74.6406 284.258 74.8594C283.93 75.0729 283.688 75.3932 283.531 75.8203C283.38 76.2474 283.299 76.7839 283.289 77.4297V77.6797C283.289 78.3672 283.362 78.9479 283.508 79.4219C283.654 79.8906 283.896 80.25 284.234 80.5C284.573 80.7448 285.029 80.8672 285.602 80.8672C286.091 80.8672 286.497 80.7344 286.82 80.4688C287.148 80.2031 287.391 79.8281 287.547 79.3438C287.708 78.8594 287.789 78.2969 287.789 77.6562C287.789 76.6823 287.609 75.9193 287.25 75.3672C286.891 74.8099 286.336 74.5312 285.586 74.5312ZM295.82 73.2344C296.867 73.2344 297.703 73.6068 298.328 74.3516C298.958 75.0911 299.273 76.1979 299.273 77.6719C299.273 78.651 299.128 79.474 298.836 80.1406C298.549 80.8021 298.143 81.3047 297.617 81.6484C297.096 81.987 296.484 82.1562 295.781 82.1562C295.339 82.1562 294.951 82.099 294.617 81.9844C294.284 81.8646 293.997 81.7083 293.758 81.5156C293.523 81.3177 293.326 81.1068 293.164 80.8828H293.062C293.083 81.0859 293.104 81.3229 293.125 81.5938C293.151 81.8594 293.164 82.099 293.164 82.3125V85.8281H291.586V73.3906H292.875L293.086 74.625H293.164C293.326 74.3698 293.523 74.138 293.758 73.9297C293.997 73.7161 294.286 73.5469 294.625 73.4219C294.964 73.2969 295.362 73.2344 295.82 73.2344ZM295.461 74.5312C294.909 74.5312 294.466 74.6406 294.133 74.8594C293.805 75.0729 293.562 75.3932 293.406 75.8203C293.255 76.2474 293.174 76.7839 293.164 77.4297V77.6797C293.164 78.3672 293.237 78.9479 293.383 79.4219C293.529 79.8906 293.771 80.25 294.109 80.5C294.448 80.7448 294.904 80.8672 295.477 80.8672C295.966 80.8672 296.372 80.7344 296.695 80.4688C297.023 80.2031 297.266 79.8281 297.422 79.3438C297.583 78.8594 297.664 78.2969 297.664 77.6562C297.664 76.6823 297.484 75.9193 297.125 75.3672C296.766 74.8099 296.211 74.5312 295.461 74.5312ZM303.039 82H301.461V69.8438H303.039V82ZM304.391 73.3906H306.086L307.914 78.3516C308.008 78.6068 308.094 78.8568 308.172 79.1016C308.255 79.3411 308.326 79.5755 308.383 79.8047C308.445 80.0286 308.495 80.25 308.531 80.4688H308.586C308.648 80.2031 308.737 79.8802 308.852 79.5C308.966 79.1198 309.091 78.7344 309.227 78.3438L310.977 73.3906H312.664L308.945 83.2188C308.742 83.7656 308.495 84.2344 308.203 84.625C307.917 85.0208 307.576 85.3229 307.18 85.5312C306.784 85.7448 306.315 85.8516 305.773 85.8516C305.523 85.8516 305.302 85.8359 305.109 85.8047C304.922 85.7786 304.76 85.7474 304.625 85.7109V84.4609C304.74 84.487 304.878 84.5104 305.039 84.5312C305.206 84.5521 305.378 84.5625 305.555 84.5625C305.883 84.5625 306.164 84.4974 306.398 84.3672C306.638 84.2422 306.841 84.0625 307.008 83.8281C307.18 83.5938 307.323 83.3203 307.438 83.0078L307.828 81.9922L304.391 73.3906ZM315.578 73.3906V82H314.008V73.3906H315.578ZM314.805 70.1328C315.055 70.1328 315.268 70.2057 315.445 70.3516C315.628 70.4974 315.719 70.7344 315.719 71.0625C315.719 71.3906 315.628 71.6302 315.445 71.7812C315.268 71.9271 315.055 72 314.805 72C314.549 72 314.333 71.9271 314.156 71.7812C313.984 71.6302 313.898 71.3906 313.898 71.0625C313.898 70.7344 313.984 70.4974 314.156 70.3516C314.333 70.2057 314.549 70.1328 314.805 70.1328ZM322.539 73.2344C323.534 73.2344 324.297 73.4844 324.828 73.9844C325.365 74.4844 325.633 75.2865 325.633 76.3906V82H324.078V76.6016C324.078 75.9141 323.927 75.3984 323.625 75.0547C323.323 74.7057 322.859 74.5312 322.234 74.5312C321.344 74.5312 320.719 74.7943 320.359 75.3203C320.005 75.8464 319.828 76.6094 319.828 77.6094V82H318.258V73.3906H319.5L319.727 74.6016H319.812C319.995 74.2995 320.227 74.0469 320.508 73.8438C320.789 73.6406 321.102 73.4896 321.445 73.3906C321.794 73.2865 322.159 73.2344 322.539 73.2344ZM330.695 85.8438C329.544 85.8438 328.659 85.6328 328.039 85.2109C327.424 84.7891 327.117 84.2005 327.117 83.4453C327.117 82.9089 327.286 82.4531 327.625 82.0781C327.964 81.7083 328.438 81.4583 329.047 81.3281C328.818 81.224 328.62 81.0651 328.453 80.8516C328.292 80.6328 328.211 80.388 328.211 80.1172C328.211 79.7995 328.299 79.526 328.477 79.2969C328.659 79.0625 328.93 78.8359 329.289 78.6172C328.836 78.4297 328.471 78.1198 328.195 77.6875C327.919 77.25 327.781 76.7396 327.781 76.1562C327.781 75.5365 327.911 75.0078 328.172 74.5703C328.438 74.1328 328.818 73.7995 329.312 73.5703C329.807 73.3411 330.409 73.2266 331.117 73.2266C331.273 73.2266 331.435 73.2344 331.602 73.25C331.768 73.2604 331.927 73.2786 332.078 73.3047C332.229 73.3307 332.352 73.3568 332.445 73.3828H335.414V74.3125L333.883 74.5469C334.034 74.7448 334.156 74.9792 334.25 75.25C334.344 75.5208 334.391 75.8177 334.391 76.1406C334.391 77.0156 334.091 77.7083 333.492 78.2188C332.898 78.724 332.076 78.9766 331.023 78.9766C330.779 78.9714 330.531 78.9505 330.281 78.9141C330.057 79.0443 329.888 79.1875 329.773 79.3438C329.659 79.4948 329.602 79.6693 329.602 79.8672C329.602 80.0182 329.651 80.1406 329.75 80.2344C329.854 80.3281 330.003 80.3984 330.195 80.4453C330.388 80.487 330.622 80.5078 330.898 80.5078H332.398C333.336 80.5078 334.055 80.7057 334.555 81.1016C335.055 81.4974 335.305 82.0755 335.305 82.8359C335.305 83.7995 334.909 84.5417 334.117 85.0625C333.326 85.5833 332.185 85.8438 330.695 85.8438ZM330.75 84.6953C331.422 84.6953 331.982 84.6276 332.43 84.4922C332.883 84.3568 333.224 84.1641 333.453 83.9141C333.682 83.6641 333.797 83.3672 333.797 83.0234C333.797 82.7109 333.721 82.4714 333.57 82.3047C333.424 82.1432 333.206 82.0339 332.914 81.9766C332.622 81.9193 332.263 81.8906 331.836 81.8906H330.414C330.049 81.8906 329.732 81.9479 329.461 82.0625C329.19 82.1771 328.979 82.3411 328.828 82.5547C328.677 82.7734 328.602 83.0417 328.602 83.3594C328.602 83.7917 328.786 84.1224 329.156 84.3516C329.531 84.5807 330.062 84.6953 330.75 84.6953ZM331.094 77.9062C331.672 77.9062 332.104 77.7552 332.391 77.4531C332.677 77.1458 332.82 76.7083 332.82 76.1406C332.82 75.5312 332.674 75.0729 332.383 74.7656C332.091 74.4583 331.659 74.3047 331.086 74.3047C330.529 74.3047 330.102 74.4635 329.805 74.7812C329.513 75.0938 329.367 75.5521 329.367 76.1562C329.367 76.7135 329.516 77.1458 329.812 77.4531C330.109 77.7552 330.536 77.9062 331.094 77.9062Z" fill="#616D92"/>
<path d="M173 116H189" stroke="#D7DAE8" stroke-width="2"/>
<path d="M189 116H273.5" stroke="#D7DAE8" stroke-width="2"/>
<rect x="273.5" y="106" width="20" height="20" rx="10" fill="#D7DAE8"/>
<path d="M285.922 120H281.088V119.136L282.938 117.261C283.297 116.896 283.591 116.582 283.822 116.318C284.053 116.051 284.224 115.799 284.335 115.562C284.449 115.324 284.506 115.065 284.506 114.785C284.506 114.44 284.407 114.18 284.208 114.004C284.009 113.825 283.747 113.735 283.422 113.735C283.113 113.735 282.826 113.797 282.562 113.921C282.302 114.041 282.032 114.214 281.752 114.438L281.122 113.682C281.321 113.512 281.532 113.358 281.757 113.218C281.985 113.078 282.239 112.967 282.519 112.886C282.799 112.801 283.118 112.759 283.476 112.759C283.928 112.759 284.319 112.84 284.647 113.003C284.976 113.162 285.229 113.385 285.404 113.672C285.583 113.958 285.673 114.292 285.673 114.673C285.673 115.057 285.596 115.412 285.443 115.737C285.29 116.063 285.072 116.385 284.789 116.704C284.506 117.02 284.169 117.363 283.778 117.734L282.543 118.94V118.994H285.922V120Z" fill="#363B51"/>
<path d="M293.5 116H378" stroke="#D7DAE8" stroke-width="2"/>
<path d="M378 116H394" stroke="#D7DAE8" stroke-width="2"/>
<path d="M470.174 34.751L463.191 32.4961" stroke="#813B19" stroke-width="0.721205" stroke-linecap="round"/>
<path d="M472.571 6.61638L457.898 14.7539L463.938 24.4582L473.869 26.77L483.394 20.8873L473.992 6.95723C473.679 6.49231 473.061 6.34434 472.571 6.61638Z" fill="#1E6DEB"/>
<path d="M462.792 6.40634C462.917 6.06421 463.278 5.86919 463.633 5.95179L482.609 10.369C483.018 10.4644 483.26 10.889 483.132 11.2901L480.663 19.0484L479.345 27.831L458.988 23.0921L459.239 20.6657C459.674 16.4533 460.631 12.3113 462.086 8.33448L462.792 6.40634Z" fill="white"/>
<path d="M457.858 14.9297L464.112 24.2605L474.043 26.5723L483.533 20.9063L479.767 37.0862C479.676 37.4741 479.289 37.7154 478.901 37.6251L454.631 31.9755C454.243 31.8852 454.001 31.4975 454.092 31.1096L457.858 14.9297Z" fill="#CCDFFF"/>
<path d="M463.597 24.1637L481.701 15.1843C481.118 17.589 480.737 20.0382 480.563 22.5064L480.553 22.6441L474.545 26.7119L463.597 24.1637Z" fill="#E6EFFF"/>
<line x1="462.823" y1="16.9801" x2="476.081" y2="20.0663" stroke="#0452D0" stroke-width="0.471353" stroke-linecap="round"/>
<line x1="466.12" y1="20.3415" x2="472.343" y2="21.7902" stroke="#0452D0" stroke-width="0.471353" stroke-linecap="round"/>
<path d="M458.21 15.0119L463.808 24.472L473.981 26.8401L482.863 21.0453C483.135 20.8678 483.485 21.1126 483.411 21.4291L479.644 37.6131" stroke="#1E6DEB" stroke-width="0.471353" stroke-linecap="round"/>
<path d="M463.794 24.4689L459.029 27.9526" stroke="#1E6DEB" stroke-width="0.471353" stroke-linecap="round"/>
<path d="M473.994 26.8437L479.476 37.2619" stroke="#1E6DEB" stroke-width="0.471353" stroke-linecap="round"/>
<path d="M482.478 13.0289C481.722 14.9575 480.801 18.263 480.635 21.5461" stroke="#0452D0" stroke-width="0.471353" stroke-linecap="round"/>
<circle cx="471.778" cy="13.1432" r="3.06512" fill="#0DA489"/>
<path d="M470.515 12.6021L471.056 14.4051L473.4 11.8809" stroke="white" stroke-width="0.682317" stroke-linecap="round" stroke-linejoin="round"/>
<path d="M485.895 36.2773L484.531 39.0535L487.473 37.6673L485.895 36.2773Z" fill="#3FB5A0"/>
<path d="M493.911 30.0723L484.839 35.9063L484.531 39.0543L485.895 36.2782L493.911 30.0723Z" fill="#087463"/>
<path d="M482.552 33.8927L493.912 30.0723L484.84 35.9063L482.552 33.8927Z" fill="#B5E8DF"/>
<path d="M493.912 30.0723L485.896 36.2782L489.615 39.5539L493.912 30.0723Z" fill="#B5E8DF"/>
<path d="M493.829 30.334L489.614 39.5534L488.232 38.3362" stroke="#3FB5A0" stroke-width="0.501396" stroke-miterlimit="10" stroke-linecap="round"/>
<path d="M460.751 29.2656C460.751 29.2656 447.685 38.7359 450.092 45.8298C452.498 52.9237 467.003 50.2142 482.552 40.8141" stroke="#8591AC" stroke-width="0.471353" stroke-miterlimit="10" stroke-linecap="round"/>
<path d="M453.205 43.7772C453.205 43.7772 454.06 50.5412 469.869 43.5586" stroke="#8591AC" stroke-width="0.471353" stroke-miterlimit="10" stroke-linecap="round"/>
<path d="M472.279 42.553L474.888 41.332" stroke="#8591AC" stroke-width="0.471353" stroke-miterlimit="10" stroke-linecap="round"/>
<rect x="378" y="56" width="189" height="40" rx="8" stroke="#D7DAE8"/>
<path d="M413.93 70.5781C414.893 70.5781 415.688 70.6979 416.312 70.9375C416.943 71.1719 417.411 71.5312 417.719 72.0156C418.026 72.4948 418.18 73.1042 418.18 73.8438C418.18 74.4271 418.073 74.9193 417.859 75.3203C417.646 75.7214 417.365 76.0495 417.016 76.3047C416.672 76.5599 416.302 76.7604 415.906 76.9062L419.102 82H417.266L414.484 77.3281H412.383V82H410.781V70.5781H413.93ZM413.828 71.9375H412.383V75.9922H413.938C414.839 75.9922 415.497 75.8177 415.914 75.4688C416.331 75.1146 416.539 74.5938 416.539 73.9062C416.539 73.1927 416.318 72.6875 415.875 72.3906C415.432 72.0885 414.75 71.9375 413.828 71.9375ZM424.008 73.2344C424.758 73.2344 425.401 73.3958 425.938 73.7188C426.474 74.0365 426.885 74.487 427.172 75.0703C427.458 75.6536 427.602 76.3411 427.602 77.1328V78.0234H421.758C421.773 78.9453 422.01 79.6536 422.469 80.1484C422.927 80.638 423.57 80.8828 424.398 80.8828C424.945 80.8828 425.432 80.8307 425.859 80.7266C426.286 80.6224 426.729 80.4688 427.188 80.2656V81.5859C426.755 81.7839 426.32 81.9271 425.883 82.0156C425.451 82.1094 424.932 82.1562 424.328 82.1562C423.495 82.1562 422.763 81.9896 422.133 81.6562C421.508 81.3229 421.021 80.8307 420.672 80.1797C420.323 79.5234 420.148 78.7161 420.148 77.7578C420.148 76.8099 420.307 76 420.625 75.3281C420.943 74.651 421.391 74.1328 421.969 73.7734C422.547 73.4141 423.227 73.2344 424.008 73.2344ZM424 74.4531C423.365 74.4531 422.854 74.6615 422.469 75.0781C422.083 75.4896 421.857 76.0807 421.789 76.8516H426.023C426.018 76.3776 425.943 75.9609 425.797 75.6016C425.651 75.2422 425.43 74.9609 425.133 74.7578C424.841 74.5547 424.464 74.4531 424 74.4531ZM431.68 82L428.406 73.3906H430.07L431.906 78.5234C432.026 78.862 432.143 79.2318 432.258 79.6328C432.378 80.0339 432.458 80.3646 432.5 80.625H432.555C432.607 80.3594 432.695 80.026 432.82 79.625C432.945 79.224 433.065 78.8568 433.18 78.5234L435.008 73.3906H436.68L433.398 82H431.68ZM439.594 73.3906V82H438.023V73.3906H439.594ZM438.82 70.1328C439.07 70.1328 439.284 70.2057 439.461 70.3516C439.643 70.4974 439.734 70.7344 439.734 71.0625C439.734 71.3906 439.643 71.6302 439.461 71.7812C439.284 71.9271 439.07 72 438.82 72C438.565 72 438.349 71.9271 438.172 71.7812C438 71.6302 437.914 71.3906 437.914 71.0625C437.914 70.7344 438 70.4974 438.172 70.3516C438.349 70.2057 438.565 70.1328 438.82 70.1328ZM445.648 73.2344C446.398 73.2344 447.042 73.3958 447.578 73.7188C448.115 74.0365 448.526 74.487 448.812 75.0703C449.099 75.6536 449.242 76.3411 449.242 77.1328V78.0234H443.398C443.414 78.9453 443.651 79.6536 444.109 80.1484C444.568 80.638 445.211 80.8828 446.039 80.8828C446.586 80.8828 447.073 80.8307 447.5 80.7266C447.927 80.6224 448.37 80.4688 448.828 80.2656V81.5859C448.396 81.7839 447.961 81.9271 447.523 82.0156C447.091 82.1094 446.573 82.1562 445.969 82.1562C445.135 82.1562 444.404 81.9896 443.773 81.6562C443.148 81.3229 442.661 80.8307 442.312 80.1797C441.964 79.5234 441.789 78.7161 441.789 77.7578C441.789 76.8099 441.948 76 442.266 75.3281C442.583 74.651 443.031 74.1328 443.609 73.7734C444.188 73.4141 444.867 73.2344 445.648 73.2344ZM445.641 74.4531C445.005 74.4531 444.495 74.6615 444.109 75.0781C443.724 75.4896 443.497 76.0807 443.43 76.8516H447.664C447.659 76.3776 447.583 75.9609 447.438 75.6016C447.292 75.2422 447.07 74.9609 446.773 74.7578C446.482 74.5547 446.104 74.4531 445.641 74.4531ZM458.406 81.9844L457.094 77.4844C457.036 77.2812 456.974 77.0573 456.906 76.8125C456.844 76.5677 456.781 76.3229 456.719 76.0781C456.656 75.8333 456.599 75.6068 456.547 75.3984C456.5 75.1849 456.464 75.013 456.438 74.8828H456.375C456.349 75.013 456.312 75.1849 456.266 75.3984C456.219 75.6068 456.164 75.8359 456.102 76.0859C456.044 76.3307 455.982 76.5781 455.914 76.8281C455.852 77.0781 455.789 77.3047 455.727 77.5078L454.352 81.9844H452.617L450.227 73.3828H451.828L453.008 77.8906C453.086 78.1927 453.161 78.5052 453.234 78.8281C453.307 79.151 453.37 79.4557 453.422 79.7422C453.474 80.0286 453.513 80.2734 453.539 80.4766H453.602C453.628 80.3411 453.659 80.1745 453.695 79.9766C453.737 79.7734 453.781 79.5625 453.828 79.3438C453.875 79.1198 453.924 78.9036 453.977 78.6953C454.034 78.487 454.086 78.3047 454.133 78.1484L455.586 73.3828H457.289L458.688 78.1406C458.755 78.3698 458.826 78.6276 458.898 78.9141C458.971 79.1953 459.036 79.474 459.094 79.75C459.151 80.026 459.19 80.263 459.211 80.4609H459.273C459.294 80.2839 459.333 80.0547 459.391 79.7734C459.448 79.4922 459.513 79.1875 459.586 78.8594C459.659 78.526 459.737 78.2031 459.82 77.8906L461.016 73.3828H462.594L460.188 81.9844H458.406ZM471.828 70.3984C472.406 70.3984 472.906 70.4974 473.328 70.6953C473.755 70.888 474.086 71.1693 474.32 71.5391C474.56 71.9036 474.68 72.3438 474.68 72.8594C474.68 73.5521 474.458 74.138 474.016 74.6172C473.578 75.0911 473.026 75.5208 472.359 75.9062L475.289 78.75C475.56 78.4115 475.781 78.0286 475.953 77.6016C476.13 77.1693 476.281 76.7083 476.406 76.2188H478.008C477.841 76.8854 477.62 77.5208 477.344 78.125C477.073 78.7292 476.729 79.2682 476.312 79.7422L478.617 82H476.562L475.273 80.7422C474.951 81.0234 474.602 81.2708 474.227 81.4844C473.852 81.6979 473.438 81.8646 472.984 81.9844C472.536 82.099 472.034 82.1562 471.477 82.1562C470.711 82.1562 470.049 82.0339 469.492 81.7891C468.935 81.5391 468.505 81.1797 468.203 80.7109C467.901 80.2422 467.75 79.6745 467.75 79.0078C467.75 78.4557 467.846 77.9844 468.039 77.5938C468.232 77.1979 468.508 76.849 468.867 76.5469C469.227 76.2396 469.656 75.9453 470.156 75.6641C469.906 75.3828 469.677 75.1042 469.469 74.8281C469.266 74.5469 469.104 74.2526 468.984 73.9453C468.865 73.6328 468.805 73.2917 468.805 72.9219C468.805 72.3958 468.93 71.9453 469.18 71.5703C469.43 71.1953 469.779 70.9062 470.227 70.7031C470.68 70.5 471.214 70.3984 471.828 70.3984ZM471.094 76.6406C470.74 76.8542 470.435 77.0677 470.18 77.2812C469.924 77.4896 469.729 77.724 469.594 77.9844C469.464 78.2448 469.398 78.5547 469.398 78.9141C469.398 79.487 469.594 79.9453 469.984 80.2891C470.38 80.6276 470.901 80.7969 471.547 80.7969C472.161 80.7969 472.693 80.6979 473.141 80.5C473.589 80.3021 473.974 80.0599 474.297 79.7734L471.094 76.6406ZM471.789 71.6641C471.367 71.6641 471.016 71.7734 470.734 71.9922C470.453 72.2109 470.312 72.5339 470.312 72.9609C470.312 73.3203 470.409 73.6562 470.602 73.9688C470.799 74.2812 471.073 74.6224 471.422 74.9922C472.026 74.6589 472.466 74.3359 472.742 74.0234C473.023 73.7109 473.164 73.3438 473.164 72.9219C473.164 72.5365 473.034 72.2318 472.773 72.0078C472.518 71.7786 472.19 71.6641 471.789 71.6641ZM489.859 79.5938C489.859 80.151 489.721 80.6224 489.445 81.0078C489.174 81.388 488.779 81.6745 488.258 81.8672C487.737 82.0599 487.112 82.1562 486.383 82.1562C485.779 82.1562 485.258 82.1094 484.82 82.0156C484.383 81.9271 483.987 81.7969 483.633 81.625V80.2344C484.013 80.4167 484.453 80.5781 484.953 80.7188C485.453 80.8594 485.943 80.9297 486.422 80.9297C487.094 80.9297 487.578 80.8229 487.875 80.6094C488.177 80.3958 488.328 80.1068 488.328 79.7422C488.328 79.5286 488.268 79.3411 488.148 79.1797C488.029 79.013 487.818 78.849 487.516 78.6875C487.219 78.5208 486.792 78.3307 486.234 78.1172C485.688 77.9036 485.219 77.6901 484.828 77.4766C484.443 77.263 484.148 77.0052 483.945 76.7031C483.742 76.401 483.641 76.0104 483.641 75.5312C483.641 74.7865 483.938 74.2188 484.531 73.8281C485.13 73.4323 485.919 73.2344 486.898 73.2344C487.419 73.2344 487.909 73.2865 488.367 73.3906C488.831 73.4948 489.273 73.6406 489.695 73.8281L489.188 75.0391C488.812 74.8776 488.427 74.7448 488.031 74.6406C487.635 74.5312 487.232 74.4766 486.82 74.4766C486.284 74.4766 485.872 74.5625 485.586 74.7344C485.305 74.9062 485.164 75.1432 485.164 75.4453C485.164 75.6797 485.229 75.875 485.359 76.0312C485.495 76.1875 485.719 76.3411 486.031 76.4922C486.344 76.638 486.766 76.8125 487.297 77.0156C487.823 77.2135 488.276 77.4193 488.656 77.6328C489.042 77.8464 489.339 78.1068 489.547 78.4141C489.755 78.7214 489.859 79.1146 489.859 79.5938ZM499.211 73.3906V82H497.953L497.734 80.8203H497.648C497.471 81.1172 497.242 81.3646 496.961 81.5625C496.68 81.7604 496.365 81.9089 496.016 82.0078C495.667 82.1068 495.297 82.1562 494.906 82.1562C494.245 82.1562 493.682 82.0469 493.219 81.8281C492.76 81.6094 492.411 81.2708 492.172 80.8125C491.938 80.349 491.82 79.7526 491.82 79.0234V73.3906H493.398V78.8047C493.398 79.4974 493.547 80.0156 493.844 80.3594C494.146 80.7031 494.604 80.875 495.219 80.875C495.818 80.875 496.292 80.7578 496.641 80.5234C496.995 80.2839 497.247 79.9375 497.398 79.4844C497.555 79.026 497.633 78.4661 497.633 77.8047V73.3906H499.211ZM503.469 69.8438V72.8281C503.469 73.1719 503.458 73.5078 503.438 73.8359C503.422 74.1641 503.406 74.4167 503.391 74.5938H503.469C503.703 74.2188 504.034 73.901 504.461 73.6406C504.893 73.375 505.448 73.2422 506.125 73.2422C507.172 73.2422 508.01 73.6172 508.641 74.3672C509.271 75.112 509.586 76.2188 509.586 77.6875C509.586 78.6562 509.44 79.474 509.148 80.1406C508.862 80.8073 508.456 81.3099 507.93 81.6484C507.409 81.987 506.794 82.1562 506.086 82.1562C505.414 82.1562 504.87 82.0339 504.453 81.7891C504.036 81.5391 503.711 81.2422 503.477 80.8984H503.359L503.062 82H501.898V69.8438H503.469ZM505.773 74.5312C505.206 74.5312 504.753 74.6432 504.414 74.8672C504.081 75.0911 503.841 75.4297 503.695 75.8828C503.549 76.3359 503.474 76.9062 503.469 77.5938V77.7109C503.469 78.7318 503.635 79.513 503.969 80.0547C504.302 80.5964 504.906 80.8672 505.781 80.8672C506.5 80.8672 507.044 80.5911 507.414 80.0391C507.789 79.487 507.977 78.6979 507.977 77.6719C507.977 76.6302 507.792 75.8464 507.422 75.3203C507.052 74.7943 506.503 74.5312 505.773 74.5312ZM521.312 73.2344C522.266 73.2344 522.984 73.4844 523.469 73.9844C523.958 74.4792 524.203 75.2734 524.203 76.3672V82H522.648V76.5625C522.648 75.8854 522.508 75.3776 522.227 75.0391C521.951 74.7005 521.536 74.5312 520.984 74.5312C520.203 74.5312 519.638 74.7682 519.289 75.2422C518.945 75.7109 518.773 76.401 518.773 77.3125V82H517.211V76.5625C517.211 76.1094 517.148 75.7344 517.023 75.4375C516.898 75.1354 516.714 74.9089 516.469 74.7578C516.224 74.6068 515.914 74.5312 515.539 74.5312C515.003 74.5312 514.573 74.6484 514.25 74.8828C513.932 75.112 513.701 75.4531 513.555 75.9062C513.414 76.3594 513.344 76.9141 513.344 77.5703V82H511.773V73.3906H513.016L513.242 74.5781H513.328C513.5 74.2812 513.716 74.0339 513.977 73.8359C514.242 73.638 514.536 73.4896 514.859 73.3906C515.182 73.2865 515.523 73.2344 515.883 73.2344C516.529 73.2344 517.073 73.3516 517.516 73.5859C517.958 73.8203 518.284 74.1771 518.492 74.6562H518.594C518.87 74.1719 519.25 73.8151 519.734 73.5859C520.224 73.3516 520.75 73.2344 521.312 73.2344ZM528.391 73.3906V82H526.82V73.3906H528.391ZM527.617 70.1328C527.867 70.1328 528.081 70.2057 528.258 70.3516C528.44 70.4974 528.531 70.7344 528.531 71.0625C528.531 71.3906 528.44 71.6302 528.258 71.7812C528.081 71.9271 527.867 72 527.617 72C527.362 72 527.146 71.9271 526.969 71.7812C526.797 71.6302 526.711 71.3906 526.711 71.0625C526.711 70.7344 526.797 70.4974 526.969 70.3516C527.146 70.2057 527.362 70.1328 527.617 70.1328ZM534.07 80.8828C534.294 80.8828 534.521 80.8646 534.75 80.8281C534.979 80.7865 535.177 80.7344 535.344 80.6719V81.875C535.167 81.9531 534.93 82.0182 534.633 82.0703C534.341 82.1276 534.042 82.1562 533.734 82.1562C533.266 82.1562 532.841 82.0755 532.461 81.9141C532.081 81.7526 531.776 81.4766 531.547 81.0859C531.323 80.6953 531.211 80.1536 531.211 79.4609V74.6016H530.016V73.875L531.266 73.2969L531.82 71.4375H532.789V73.3906H535.281V74.6016H532.789V79.4375C532.789 79.9219 532.904 80.2839 533.133 80.5234C533.367 80.763 533.68 80.8828 534.07 80.8828Z" fill="#616D92"/>
<path d="M362 116H378" stroke="#D7DAE8" stroke-width="2"/>
<path d="M378 116H462.5" stroke="#D7DAE8" stroke-width="2"/>
<rect x="462.5" y="106" width="20" height="20" rx="10" fill="#D7DAE8"/>
<path d="M474.648 114.492C474.648 114.814 474.583 115.094 474.453 115.332C474.323 115.57 474.144 115.765 473.916 115.918C473.691 116.068 473.431 116.175 473.135 116.24V116.274C473.704 116.346 474.134 116.525 474.424 116.812C474.717 117.098 474.863 117.477 474.863 117.949C474.863 118.363 474.764 118.732 474.565 119.058C474.367 119.38 474.062 119.634 473.652 119.819C473.242 120.005 472.715 120.098 472.07 120.098C471.683 120.098 471.323 120.067 470.991 120.005C470.662 119.943 470.35 119.844 470.054 119.707V118.687C470.356 118.836 470.679 118.952 471.021 119.033C471.362 119.115 471.686 119.155 471.992 119.155C472.588 119.155 473.013 119.045 473.267 118.823C473.521 118.599 473.647 118.289 473.647 117.896C473.647 117.642 473.581 117.433 473.447 117.271C473.317 117.108 473.114 116.986 472.837 116.904C472.563 116.823 472.21 116.782 471.777 116.782H471.147V115.859H471.782C472.196 115.859 472.528 115.811 472.778 115.713C473.029 115.612 473.21 115.474 473.32 115.298C473.434 115.122 473.491 114.917 473.491 114.683C473.491 114.377 473.392 114.139 473.193 113.97C472.995 113.797 472.7 113.711 472.31 113.711C472.069 113.711 471.849 113.739 471.65 113.794C471.455 113.849 471.274 113.919 471.108 114.004C470.942 114.089 470.785 114.18 470.635 114.277L470.083 113.481C470.353 113.28 470.675 113.109 471.05 112.969C471.424 112.829 471.86 112.759 472.358 112.759C473.091 112.759 473.656 112.917 474.053 113.232C474.45 113.545 474.648 113.965 474.648 114.492Z" fill="#363B51"/>
<path d="M482.5 116H567" stroke="#D7DAE8" stroke-width="2"/>
<path d="M567 116H583" stroke="#D7DAE8" stroke-width="2"/>
<path d="M680.572 21.4062V40.754H645.477L680.572 21.4062Z" fill="#D0E4FF"/>
<path d="M641.181 12.632C641.181 12.2592 641.483 11.957 641.856 11.957H682.09C682.462 11.957 682.765 12.2592 682.765 12.632V40.3097H641.181V12.632Z" fill="#85B3FF"/>
<path d="M636.928 40.3105H687.017V42.7411C687.017 43.4866 686.413 44.0909 685.668 44.0909H638.278C637.532 44.0909 636.928 43.4866 636.928 42.7411V40.3105Z" fill="#468CFB"/>
<path d="M655.357 39.8379V40.5133C655.357 41.4452 656.112 42.2006 657.044 42.2006H666.428C667.36 42.2006 668.116 41.4452 668.116 40.5133V39.8379" stroke="#003D9F" stroke-width="0.899895" stroke-linecap="round"/>
<path d="M643.071 14.5226C643.071 14.1498 643.373 13.8477 643.746 13.8477H680.199C680.572 13.8477 680.874 14.1498 680.874 14.5226V17.1555H643.071V14.5226Z" fill="#003D9F"/>
<rect x="643.071" y="17.1543" width="37.8036" height="23.1547" fill="#F0F5FF"/>
<rect x="646.376" y="20.5059" width="31.0464" height="6.29926" rx="0.568059" fill="#CDEEE8" stroke="#3FB5A0" stroke-width="0.899895"/>
<rect x="646.376" y="29.5059" width="8.549" height="6.74921" rx="0.568059" fill="#DCE9FE" stroke="#75AFFF" stroke-width="0.899895"/>
<rect x="657.625" y="29.5059" width="8.549" height="6.74921" rx="0.568059" fill="#DCE9FE" stroke="#75AFFF" stroke-width="0.899895"/>
<rect x="668.874" y="29.5059" width="8.549" height="6.74921" rx="0.568059" fill="#DCE9FE" stroke="#75AFFF" stroke-width="0.899895"/>
<path d="M660.55 23.8799L661.743 25.0735C661.822 25.1522 661.954 25.1345 662.009 25.0379L663.699 22.0801" stroke="#3FB5A0" stroke-width="0.899895" stroke-linecap="round" stroke-linejoin="round"/>
<path d="M649.076 33.1045L650.27 34.2981C650.348 34.3768 650.48 34.3591 650.536 34.2625L652.226 31.3047" stroke="#85B3FF" stroke-width="0.899895" stroke-linecap="round" stroke-linejoin="round"/>
<path d="M660.325 33.1045L661.518 34.2981C661.597 34.3768 661.729 34.3591 661.784 34.2625L663.474 31.3047" stroke="#85B3FF" stroke-width="0.899895" stroke-linecap="round" stroke-linejoin="round"/>
<path d="M671.574 33.1045L672.767 34.2981C672.846 34.3768 672.978 34.3591 673.033 34.2625L674.723 31.3047" stroke="#85B3FF" stroke-width="0.899895" stroke-linecap="round" stroke-linejoin="round"/>
<rect x="567" y="56" width="189" height="40" rx="8" stroke="#D7DAE8"/>
<path d="M606.781 75.9062H610.906V81.5391C610.307 81.7422 609.69 81.8958 609.055 82C608.419 82.1042 607.706 82.1562 606.914 82.1562C605.737 82.1562 604.745 81.9219 603.938 81.4531C603.13 80.9844 602.516 80.3125 602.094 79.4375C601.677 78.5625 601.469 77.5104 601.469 76.2812C601.469 75.099 601.701 74.0677 602.164 73.1875C602.628 72.3073 603.302 71.625 604.188 71.1406C605.073 70.6562 606.141 70.4141 607.391 70.4141C608.016 70.4141 608.615 70.474 609.188 70.5938C609.766 70.7135 610.297 70.8802 610.781 71.0938L610.203 72.4453C609.797 72.263 609.346 72.1094 608.852 71.9844C608.362 71.8542 607.854 71.7891 607.328 71.7891C606.453 71.7891 605.701 71.974 605.07 72.3438C604.445 72.7135 603.964 73.2344 603.625 73.9062C603.292 74.5781 603.125 75.375 603.125 76.2969C603.125 77.1979 603.266 77.9844 603.547 78.6562C603.828 79.3281 604.268 79.8516 604.867 80.2266C605.466 80.6016 606.237 80.7891 607.18 80.7891C607.654 80.7891 608.057 80.763 608.391 80.7109C608.729 80.6589 609.039 80.5964 609.32 80.5234V77.3047H606.781V75.9062ZM616.836 73.2344C617.586 73.2344 618.229 73.3958 618.766 73.7188C619.302 74.0365 619.714 74.487 620 75.0703C620.286 75.6536 620.43 76.3411 620.43 77.1328V78.0234H614.586C614.602 78.9453 614.839 79.6536 615.297 80.1484C615.755 80.638 616.398 80.8828 617.227 80.8828C617.773 80.8828 618.26 80.8307 618.688 80.7266C619.115 80.6224 619.557 80.4688 620.016 80.2656V81.5859C619.583 81.7839 619.148 81.9271 618.711 82.0156C618.279 82.1094 617.76 82.1562 617.156 82.1562C616.323 82.1562 615.591 81.9896 614.961 81.6562C614.336 81.3229 613.849 80.8307 613.5 80.1797C613.151 79.5234 612.977 78.7161 612.977 77.7578C612.977 76.8099 613.135 76 613.453 75.3281C613.771 74.651 614.219 74.1328 614.797 73.7734C615.375 73.4141 616.055 73.2344 616.836 73.2344ZM616.828 74.4531C616.193 74.4531 615.682 74.6615 615.297 75.0781C614.911 75.4896 614.685 76.0807 614.617 76.8516H618.852C618.846 76.3776 618.771 75.9609 618.625 75.6016C618.479 75.2422 618.258 74.9609 617.961 74.7578C617.669 74.5547 617.292 74.4531 616.828 74.4531ZM625.57 80.8828C625.794 80.8828 626.021 80.8646 626.25 80.8281C626.479 80.7865 626.677 80.7344 626.844 80.6719V81.875C626.667 81.9531 626.43 82.0182 626.133 82.0703C625.841 82.1276 625.542 82.1562 625.234 82.1562C624.766 82.1562 624.341 82.0755 623.961 81.9141C623.581 81.7526 623.276 81.4766 623.047 81.0859C622.823 80.6953 622.711 80.1536 622.711 79.4609V74.6016H621.516V73.875L622.766 73.2969L623.32 71.4375H624.289V73.3906H626.781V74.6016H624.289V79.4375C624.289 79.9219 624.404 80.2839 624.633 80.5234C624.867 80.763 625.18 80.8828 625.57 80.8828ZM631.422 73.3906H633.117L634.945 78.3516C635.039 78.6068 635.125 78.8568 635.203 79.1016C635.286 79.3411 635.357 79.5755 635.414 79.8047C635.477 80.0286 635.526 80.25 635.562 80.4688H635.617C635.68 80.2031 635.768 79.8802 635.883 79.5C635.997 79.1198 636.122 78.7344 636.258 78.3438L638.008 73.3906H639.695L635.977 83.2188C635.773 83.7656 635.526 84.2344 635.234 84.625C634.948 85.0208 634.607 85.3229 634.211 85.5312C633.815 85.7448 633.346 85.8516 632.805 85.8516C632.555 85.8516 632.333 85.8359 632.141 85.8047C631.953 85.7786 631.792 85.7474 631.656 85.7109V84.4609C631.771 84.487 631.909 84.5104 632.07 84.5312C632.237 84.5521 632.409 84.5625 632.586 84.5625C632.914 84.5625 633.195 84.4974 633.43 84.3672C633.669 84.2422 633.872 84.0625 634.039 83.8281C634.211 83.5938 634.354 83.3203 634.469 83.0078L634.859 81.9922L631.422 73.3906ZM648.562 77.6797C648.562 78.388 648.469 79.0208 648.281 79.5781C648.099 80.1302 647.831 80.599 647.477 80.9844C647.128 81.3646 646.706 81.6562 646.211 81.8594C645.716 82.0573 645.156 82.1562 644.531 82.1562C643.948 82.1562 643.411 82.0573 642.922 81.8594C642.438 81.6562 642.018 81.3646 641.664 80.9844C641.31 80.599 641.036 80.1302 640.844 79.5781C640.651 79.0208 640.555 78.388 640.555 77.6797C640.555 76.737 640.716 75.9349 641.039 75.2734C641.362 74.6068 641.823 74.1016 642.422 73.7578C643.026 73.4089 643.745 73.2344 644.578 73.2344C645.37 73.2344 646.065 73.4089 646.664 73.7578C647.263 74.1068 647.729 74.612 648.062 75.2734C648.396 75.9349 648.562 76.737 648.562 77.6797ZM642.164 77.6797C642.164 78.3411 642.247 78.9115 642.414 79.3906C642.586 79.8646 642.846 80.2292 643.195 80.4844C643.549 80.7396 644.005 80.8672 644.562 80.8672C645.109 80.8672 645.56 80.7396 645.914 80.4844C646.268 80.2292 646.529 79.8646 646.695 79.3906C646.862 78.9115 646.945 78.3411 646.945 77.6797C646.945 77.0234 646.862 76.4609 646.695 75.9922C646.529 75.5234 646.268 75.1641 645.914 74.9141C645.565 74.6641 645.109 74.5391 644.547 74.5391C643.724 74.5391 643.12 74.8151 642.734 75.3672C642.354 75.9141 642.164 76.6849 642.164 77.6797ZM658.055 73.3906V82H656.797L656.578 80.8203H656.492C656.315 81.1172 656.086 81.3646 655.805 81.5625C655.523 81.7604 655.208 81.9089 654.859 82.0078C654.51 82.1068 654.141 82.1562 653.75 82.1562C653.089 82.1562 652.526 82.0469 652.062 81.8281C651.604 81.6094 651.255 81.2708 651.016 80.8125C650.781 80.349 650.664 79.7526 650.664 79.0234V73.3906H652.242V78.8047C652.242 79.4974 652.391 80.0156 652.688 80.3594C652.99 80.7031 653.448 80.875 654.062 80.875C654.661 80.875 655.135 80.7578 655.484 80.5234C655.839 80.2839 656.091 79.9375 656.242 79.4844C656.398 79.026 656.477 78.4661 656.477 77.8047V73.3906H658.055ZM664.883 73.2344C665.039 73.2344 665.208 73.2448 665.391 73.2656C665.573 73.2812 665.729 73.3021 665.859 73.3281L665.695 74.7891C665.57 74.7578 665.424 74.7318 665.258 74.7109C665.096 74.6901 664.945 74.6797 664.805 74.6797C664.471 74.6797 664.154 74.7422 663.852 74.8672C663.549 74.9922 663.284 75.1745 663.055 75.4141C662.826 75.6484 662.646 75.9375 662.516 76.2812C662.385 76.6198 662.32 77.0078 662.32 77.4453V82H660.742V73.3906H662.008L662.195 74.9453H662.266C662.443 74.6328 662.656 74.3464 662.906 74.0859C663.161 73.8255 663.453 73.6198 663.781 73.4688C664.115 73.3125 664.482 73.2344 664.883 73.2344ZM675.758 73.2344C675.914 73.2344 676.083 73.2448 676.266 73.2656C676.448 73.2812 676.604 73.3021 676.734 73.3281L676.57 74.7891C676.445 74.7578 676.299 74.7318 676.133 74.7109C675.971 74.6901 675.82 74.6797 675.68 74.6797C675.346 74.6797 675.029 74.7422 674.727 74.8672C674.424 74.9922 674.159 75.1745 673.93 75.4141C673.701 75.6484 673.521 75.9375 673.391 76.2812C673.26 76.6198 673.195 77.0078 673.195 77.4453V82H671.617V73.3906H672.883L673.07 74.9453H673.141C673.318 74.6328 673.531 74.3464 673.781 74.0859C674.036 73.8255 674.328 73.6198 674.656 73.4688C674.99 73.3125 675.357 73.2344 675.758 73.2344ZM681.711 73.2344C682.461 73.2344 683.104 73.3958 683.641 73.7188C684.177 74.0365 684.589 74.487 684.875 75.0703C685.161 75.6536 685.305 76.3411 685.305 77.1328V78.0234H679.461C679.477 78.9453 679.714 79.6536 680.172 80.1484C680.63 80.638 681.273 80.8828 682.102 80.8828C682.648 80.8828 683.135 80.8307 683.562 80.7266C683.99 80.6224 684.432 80.4688 684.891 80.2656V81.5859C684.458 81.7839 684.023 81.9271 683.586 82.0156C683.154 82.1094 682.635 82.1562 682.031 82.1562C681.198 82.1562 680.466 81.9896 679.836 81.6562C679.211 81.3229 678.724 80.8307 678.375 80.1797C678.026 79.5234 677.852 78.7161 677.852 77.7578C677.852 76.8099 678.01 76 678.328 75.3281C678.646 74.651 679.094 74.1328 679.672 73.7734C680.25 73.4141 680.93 73.2344 681.711 73.2344ZM681.703 74.4531C681.068 74.4531 680.557 74.6615 680.172 75.0781C679.786 75.4896 679.56 76.0807 679.492 76.8516H683.727C683.721 76.3776 683.646 75.9609 683.5 75.6016C683.354 75.2422 683.133 74.9609 682.836 74.7578C682.544 74.5547 682.167 74.4531 681.703 74.4531ZM693.125 79.5938C693.125 80.151 692.987 80.6224 692.711 81.0078C692.44 81.388 692.044 81.6745 691.523 81.8672C691.003 82.0599 690.378 82.1562 689.648 82.1562C689.044 82.1562 688.523 82.1094 688.086 82.0156C687.648 81.9271 687.253 81.7969 686.898 81.625V80.2344C687.279 80.4167 687.719 80.5781 688.219 80.7188C688.719 80.8594 689.208 80.9297 689.688 80.9297C690.359 80.9297 690.844 80.8229 691.141 80.6094C691.443 80.3958 691.594 80.1068 691.594 79.7422C691.594 79.5286 691.534 79.3411 691.414 79.1797C691.294 79.013 691.083 78.849 690.781 78.6875C690.484 78.5208 690.057 78.3307 689.5 78.1172C688.953 77.9036 688.484 77.6901 688.094 77.4766C687.708 77.263 687.414 77.0052 687.211 76.7031C687.008 76.401 686.906 76.0104 686.906 75.5312C686.906 74.7865 687.203 74.2188 687.797 73.8281C688.396 73.4323 689.185 73.2344 690.164 73.2344C690.685 73.2344 691.174 73.2865 691.633 73.3906C692.096 73.4948 692.539 73.6406 692.961 73.8281L692.453 75.0391C692.078 74.8776 691.693 74.7448 691.297 74.6406C690.901 74.5312 690.497 74.4766 690.086 74.4766C689.549 74.4766 689.138 74.5625 688.852 74.7344C688.57 74.9062 688.43 75.1432 688.43 75.4453C688.43 75.6797 688.495 75.875 688.625 76.0312C688.76 76.1875 688.984 76.3411 689.297 76.4922C689.609 76.638 690.031 76.8125 690.562 77.0156C691.089 77.2135 691.542 77.4193 691.922 77.6328C692.307 77.8464 692.604 78.1068 692.812 78.4141C693.021 78.7214 693.125 79.1146 693.125 79.5938ZM702.477 73.3906V82H701.219L701 80.8203H700.914C700.737 81.1172 700.508 81.3646 700.227 81.5625C699.945 81.7604 699.63 81.9089 699.281 82.0078C698.932 82.1068 698.562 82.1562 698.172 82.1562C697.51 82.1562 696.948 82.0469 696.484 81.8281C696.026 81.6094 695.677 81.2708 695.438 80.8125C695.203 80.349 695.086 79.7526 695.086 79.0234V73.3906H696.664V78.8047C696.664 79.4974 696.812 80.0156 697.109 80.3594C697.411 80.7031 697.87 80.875 698.484 80.875C699.083 80.875 699.557 80.7578 699.906 80.5234C700.26 80.2839 700.513 79.9375 700.664 79.4844C700.82 79.026 700.898 78.4661 700.898 77.8047V73.3906H702.477ZM706.742 82H705.164V69.8438H706.742V82ZM712.414 80.8828C712.638 80.8828 712.865 80.8646 713.094 80.8281C713.323 80.7865 713.521 80.7344 713.688 80.6719V81.875C713.51 81.9531 713.273 82.0182 712.977 82.0703C712.685 82.1276 712.385 82.1562 712.078 82.1562C711.609 82.1562 711.185 82.0755 710.805 81.9141C710.424 81.7526 710.12 81.4766 709.891 81.0859C709.667 80.6953 709.555 80.1536 709.555 79.4609V74.6016H708.359V73.875L709.609 73.2969L710.164 71.4375H711.133V73.3906H713.625V74.6016H711.133V79.4375C711.133 79.9219 711.247 80.2839 711.477 80.5234C711.711 80.763 712.023 80.8828 712.414 80.8828ZM721.109 79.5938C721.109 80.151 720.971 80.6224 720.695 81.0078C720.424 81.388 720.029 81.6745 719.508 81.8672C718.987 82.0599 718.362 82.1562 717.633 82.1562C717.029 82.1562 716.508 82.1094 716.07 82.0156C715.633 81.9271 715.237 81.7969 714.883 81.625V80.2344C715.263 80.4167 715.703 80.5781 716.203 80.7188C716.703 80.8594 717.193 80.9297 717.672 80.9297C718.344 80.9297 718.828 80.8229 719.125 80.6094C719.427 80.3958 719.578 80.1068 719.578 79.7422C719.578 79.5286 719.518 79.3411 719.398 79.1797C719.279 79.013 719.068 78.849 718.766 78.6875C718.469 78.5208 718.042 78.3307 717.484 78.1172C716.938 77.9036 716.469 77.6901 716.078 77.4766C715.693 77.263 715.398 77.0052 715.195 76.7031C714.992 76.401 714.891 76.0104 714.891 75.5312C714.891 74.7865 715.188 74.2188 715.781 73.8281C716.38 73.4323 717.169 73.2344 718.148 73.2344C718.669 73.2344 719.159 73.2865 719.617 73.3906C720.081 73.4948 720.523 73.6406 720.945 73.8281L720.438 75.0391C720.062 74.8776 719.677 74.7448 719.281 74.6406C718.885 74.5312 718.482 74.4766 718.07 74.4766C717.534 74.4766 717.122 74.5625 716.836 74.7344C716.555 74.9062 716.414 75.1432 716.414 75.4453C716.414 75.6797 716.479 75.875 716.609 76.0312C716.745 76.1875 716.969 76.3411 717.281 76.4922C717.594 76.638 718.016 76.8125 718.547 77.0156C719.073 77.2135 719.526 77.4193 719.906 77.6328C720.292 77.8464 720.589 78.1068 720.797 78.4141C721.005 78.7214 721.109 79.1146 721.109 79.5938Z" fill="#616D92"/>
<path d="M551 116H567" stroke="#D7DAE8" stroke-width="2"/>
<path d="M567 116H651.5" stroke="#D7DAE8" stroke-width="2"/>
<rect x="651.5" y="106" width="20" height="20" rx="10" fill="#D7DAE8"/>
<path d="M664.181 118.433H663.214V120H662.081V118.433H658.834V117.563L662.096 112.842H663.214V117.48H664.181V118.433ZM662.081 117.48V115.708C662.081 115.562 662.083 115.413 662.086 115.264C662.092 115.111 662.099 114.964 662.105 114.824C662.112 114.684 662.118 114.556 662.125 114.438C662.132 114.318 662.136 114.219 662.14 114.141H662.101C662.039 114.271 661.97 114.404 661.896 114.541C661.821 114.674 661.741 114.805 661.656 114.932L659.898 117.48H662.081Z" fill="#363B51"/>
<path d="M671.5 116H756" stroke="#D7DAE8" stroke-width="2"/>
<path d="M756 116H772" stroke="#D7DAE8" stroke-width="2"/>
<g clip-path="url(#clip1_3796_132267)">
<path d="M860.57 6.60423C860.355 5.99007 859.683 5.6665 859.069 5.88153L833.539 14.8197C832.925 15.0348 832.601 15.7069 832.816 16.3211L844.55 49.8344C844.765 50.4486 845.437 50.7722 846.051 50.5571L871.581 41.6189C872.195 41.4039 872.518 40.7317 872.303 40.1176L860.57 6.60423Z" fill="#0146B5"/>
<path d="M872.218 39.8737L847.857 48.4026C847.243 48.6176 846.571 48.294 846.356 47.6799L836.44 19.3567L865.792 21.6732L872.218 39.8737Z" fill="#002E75"/>
<path d="M859.061 9.38668C858.859 8.92537 858.333 8.69942 857.858 8.86588L836.425 16.3696C835.918 16.5473 835.651 17.1029 835.829 17.6102L846.081 46.7955C846.263 47.312 846.834 47.5771 847.346 47.3821L870.487 38.5582C871.094 38.3265 871.307 37.5742 870.926 37.0472C864.124 27.6393 863.652 19.8524 859.061 9.38668Z" fill="#F5F8FF"/>
<path d="M859.553 10.4067C859.526 10.2783 859.474 10.1198 859.395 9.95437L858.755 8.12559L857.614 8.52492L857.747 8.9051C858.634 8.85318 859.148 9.43778 859.395 9.95437L859.553 10.4067Z" fill="#034FCA"/>
<path d="M862.587 20.396L846.839 46.8723C846.661 47.1713 846.959 47.5274 847.285 47.4057L871.114 38.5025C871.456 38.3749 871.597 37.9669 871.409 37.6543C867.407 31.0002 866.19 29.1647 863.255 20.4698C863.154 20.1711 862.748 20.125 862.587 20.396Z" fill="#C8DCFE"/>
<rect x="840.967" y="21.4609" width="17.6381" height="4.06146" rx="0.368328" transform="rotate(-18.6897 840.967 21.4609)" stroke="#69A2FE" stroke-width="0.879943"/>
<rect x="842.874" y="28.1016" width="17.6381" height="4.85137" rx="0.368328" transform="rotate(-18.6897 842.874 28.1016)" stroke="#69A2FE" stroke-width="0.879943"/>
<line x1="846.516" y1="17.5106" x2="851.444" y2="15.8436" stroke="#69A2FE" stroke-width="0.879943" stroke-linecap="round"/>
<path fill-rule="evenodd" clip-rule="evenodd" d="M853.03 6.13471L848.792 7.61588C848.196 5.91288 846.333 5.0148 844.63 5.60994C842.927 6.20509 842.028 8.06811 842.623 9.77129L838.384 11.2527C838 11.387 837.797 11.8071 837.931 12.1912L839.385 16.3517C839.519 16.7358 839.94 16.9383 840.324 16.8041L854.97 11.6861C855.354 11.5519 855.557 11.1317 855.423 10.7477L853.969 6.58712C853.835 6.20305 853.414 6.0005 853.03 6.13471ZM846.207 9.79611C846.888 9.55803 847.248 8.81271 847.01 8.13139C846.772 7.45007 846.026 7.09075 845.345 7.32883C844.664 7.56691 844.304 8.31223 844.542 8.99355C844.78 9.67487 845.526 10.0342 846.207 9.79611Z" fill="#69A2FE"/>
<path d="M838.767 14.5801L854.804 8.97603L855.423 10.7479C855.557 11.132 855.355 11.5521 854.971 11.6863L840.324 16.8044C839.94 16.9386 839.52 16.736 839.386 16.3519L838.767 14.5801Z" fill="#1E6DEB"/>
<path d="M829.526 21.4122C829.632 20.5255 830.437 19.8924 831.323 19.9982L845.475 21.6871C846.362 21.7929 846.995 22.5975 846.889 23.4842L844.543 43.1416C844.437 44.0283 843.632 44.6614 842.746 44.5556L828.594 42.8667C827.707 42.7609 827.074 41.9563 827.18 41.0696L829.526 21.4122Z" fill="#003DA1"/>
<path d="M831.928 41.584L846.184 29.2379L844.753 42.1903C844.704 42.6342 844.304 42.9542 843.86 42.905L831.928 41.584Z" fill="#002E75"/>
<path d="M833.743 34.8242L840.61 35.6437" stroke="#FFCC60" stroke-width="0.879943" stroke-linecap="round"/>
<path d="M835.255 36.7461L838.688 37.1558" stroke="#FFCC60" stroke-width="0.879943" stroke-linecap="round"/>
<ellipse cx="837.801" cy="28.7786" rx="3.88994" ry="3.88994" transform="rotate(6.80543 837.801 28.7786)" stroke="#FFCC60" stroke-width="0.879943"/>
<ellipse cx="837.801" cy="28.7788" rx="1.58479" ry="3.88994" transform="rotate(6.80543 837.801 28.7788)" stroke="#FFCC60" stroke-width="0.879943"/>
<line x1="834.397" y1="26.9127" x2="841.55" y2="27.7663" stroke="#FFCC60" stroke-width="0.879943"/>
<path d="M834.071 29.6387L841.367 30.5094" stroke="#FFCC60" stroke-width="0.879943"/>
<path d="M843.295 42.7007L829.051 41.1543" stroke="#FEEDC8" stroke-width="1.13098" stroke-linecap="round"/>
<rect x="849.357" y="32.5371" width="15.6128" height="5.46328" transform="rotate(1.46367 849.357 32.5371)" stroke="#16A68C" stroke-width="0.879943" stroke-linejoin="round"/>
<path d="M851.656 35.2812L862.114 35.5485" stroke="#16A68C" stroke-width="1.97922" stroke-linecap="round"/>
<path fill-rule="evenodd" clip-rule="evenodd" d="M865.132 9.40869C864.893 9.88751 864.769 10.3938 864.75 10.896L864.749 10.8958L864.75 10.8983C864.737 11.2234 864.769 11.5467 864.841 11.8598C864.938 14.5899 863.795 18.2593 861.049 20.0772L857.156 18.1311C856.423 17.7648 855.532 18.062 855.165 18.7948L854.103 20.9214L869.068 28.4013L869.91 26.717C870.398 25.7399 870.002 24.5519 869.025 24.0635L865.574 22.3389C865.38 19.0509 867.63 15.9335 869.872 14.3726C870.165 14.243 870.441 14.0747 870.693 13.8705C870.694 13.8698 870.696 13.8692 870.697 13.8685L870.696 13.8681C871.086 13.5511 871.416 13.148 871.656 12.6692C872.556 10.8678 871.826 8.67764 870.024 7.77729C868.223 6.87694 866.033 7.60734 865.132 9.40869Z" fill="#0A5ADA"/>
<path d="M853.651 25.2041L854.104 20.9224L869.069 28.4023L865.649 30.8727L853.651 25.2041Z" fill="#FB517E"/>
<path d="M868.515 28.419L865.442 30.481L859.69 27.6411L853.938 24.8013" stroke="#813B19" stroke-width="0.879943" stroke-linecap="round" stroke-linejoin="round"/>
<path d="M854.448 21.0307L868.415 28.1985C868.659 28.324 868.959 28.2259 869.083 27.9801L869.92 26.3087C870.279 25.5929 870.005 24.7216 869.301 24.34L866.397 22.7651C865.938 22.5162 865.635 22.0446 865.672 21.5237C865.808 19.5766 866.67 16.3754 869.758 14.4006C874.245 11.5304 871.213 7.6121 869.475 7.71126" stroke="#00368A" stroke-width="0.879943" stroke-linecap="round"/>
</g>
<rect x="756" y="56" width="189" height="40" rx="8" stroke="#D7DAE8"/>
<path d="M807.656 82L806.391 78.6016H801.914L800.664 82H799L803.359 70.5312H805L809.336 82H807.656ZM805.945 77.2109L804.742 73.8438C804.706 73.7292 804.648 73.5573 804.57 73.3281C804.497 73.099 804.422 72.862 804.344 72.6172C804.271 72.3724 804.211 72.1693 804.164 72.0078C804.112 72.2214 804.052 72.4479 803.984 72.6875C803.917 72.9219 803.849 73.1432 803.781 73.3516C803.719 73.5547 803.667 73.7188 803.625 73.8438L802.406 77.2109H805.945ZM814.93 73.2344C815.977 73.2344 816.812 73.6068 817.438 74.3516C818.068 75.0911 818.383 76.1979 818.383 77.6719C818.383 78.651 818.237 79.474 817.945 80.1406C817.659 80.8021 817.253 81.3047 816.727 81.6484C816.206 81.987 815.594 82.1562 814.891 82.1562C814.448 82.1562 814.06 82.099 813.727 81.9844C813.393 81.8646 813.107 81.7083 812.867 81.5156C812.633 81.3177 812.435 81.1068 812.273 80.8828H812.172C812.193 81.0859 812.214 81.3229 812.234 81.5938C812.26 81.8594 812.273 82.099 812.273 82.3125V85.8281H810.695V73.3906H811.984L812.195 74.625H812.273C812.435 74.3698 812.633 74.138 812.867 73.9297C813.107 73.7161 813.396 73.5469 813.734 73.4219C814.073 73.2969 814.471 73.2344 814.93 73.2344ZM814.57 74.5312C814.018 74.5312 813.576 74.6406 813.242 74.8594C812.914 75.0729 812.672 75.3932 812.516 75.8203C812.365 76.2474 812.284 76.7839 812.273 77.4297V77.6797C812.273 78.3672 812.346 78.9479 812.492 79.4219C812.638 79.8906 812.88 80.25 813.219 80.5C813.557 80.7448 814.013 80.8672 814.586 80.8672C815.076 80.8672 815.482 80.7344 815.805 80.4688C816.133 80.2031 816.375 79.8281 816.531 79.3438C816.693 78.8594 816.773 78.2969 816.773 77.6562C816.773 76.6823 816.594 75.9193 816.234 75.3672C815.875 74.8099 815.32 74.5312 814.57 74.5312ZM824.805 73.2344C825.852 73.2344 826.688 73.6068 827.312 74.3516C827.943 75.0911 828.258 76.1979 828.258 77.6719C828.258 78.651 828.112 79.474 827.82 80.1406C827.534 80.8021 827.128 81.3047 826.602 81.6484C826.081 81.987 825.469 82.1562 824.766 82.1562C824.323 82.1562 823.935 82.099 823.602 81.9844C823.268 81.8646 822.982 81.7083 822.742 81.5156C822.508 81.3177 822.31 81.1068 822.148 80.8828H822.047C822.068 81.0859 822.089 81.3229 822.109 81.5938C822.135 81.8594 822.148 82.099 822.148 82.3125V85.8281H820.57V73.3906H821.859L822.07 74.625H822.148C822.31 74.3698 822.508 74.138 822.742 73.9297C822.982 73.7161 823.271 73.5469 823.609 73.4219C823.948 73.2969 824.346 73.2344 824.805 73.2344ZM824.445 74.5312C823.893 74.5312 823.451 74.6406 823.117 74.8594C822.789 75.0729 822.547 75.3932 822.391 75.8203C822.24 76.2474 822.159 76.7839 822.148 77.4297V77.6797C822.148 78.3672 822.221 78.9479 822.367 79.4219C822.513 79.8906 822.755 80.25 823.094 80.5C823.432 80.7448 823.888 80.8672 824.461 80.8672C824.951 80.8672 825.357 80.7344 825.68 80.4688C826.008 80.2031 826.25 79.8281 826.406 79.3438C826.568 78.8594 826.648 78.2969 826.648 77.6562C826.648 76.6823 826.469 75.9193 826.109 75.3672C825.75 74.8099 825.195 74.5312 824.445 74.5312ZM832.023 82H830.445V69.8438H832.023V82ZM833.375 73.3906H835.07L836.898 78.3516C836.992 78.6068 837.078 78.8568 837.156 79.1016C837.24 79.3411 837.31 79.5755 837.367 79.8047C837.43 80.0286 837.479 80.25 837.516 80.4688H837.57C837.633 80.2031 837.721 79.8802 837.836 79.5C837.951 79.1198 838.076 78.7344 838.211 78.3438L839.961 73.3906H841.648L837.93 83.2188C837.727 83.7656 837.479 84.2344 837.188 84.625C836.901 85.0208 836.56 85.3229 836.164 85.5312C835.768 85.7448 835.299 85.8516 834.758 85.8516C834.508 85.8516 834.286 85.8359 834.094 85.8047C833.906 85.7786 833.745 85.7474 833.609 85.7109V84.4609C833.724 84.487 833.862 84.5104 834.023 84.5312C834.19 84.5521 834.362 84.5625 834.539 84.5625C834.867 84.5625 835.148 84.4974 835.383 84.3672C835.622 84.2422 835.826 84.0625 835.992 83.8281C836.164 83.5938 836.307 83.3203 836.422 83.0078L836.812 81.9922L833.375 73.3906ZM851.219 74.6016H849.102V82H847.531V74.6016H846.07V73.8438L847.531 73.3672V72.7734C847.531 72.0495 847.643 71.4688 847.867 71.0312C848.091 70.5885 848.411 70.2656 848.828 70.0625C849.25 69.8594 849.76 69.7578 850.359 69.7578C850.719 69.7578 851.047 69.7891 851.344 69.8516C851.646 69.9141 851.906 69.9844 852.125 70.0625L851.719 71.2656C851.542 71.2083 851.344 71.1562 851.125 71.1094C850.906 71.0573 850.674 71.0312 850.43 71.0312C849.977 71.0312 849.641 71.1771 849.422 71.4688C849.208 71.7604 849.102 72.2005 849.102 72.7891V73.3906H851.219V74.6016ZM860.266 77.6797C860.266 78.388 860.172 79.0208 859.984 79.5781C859.802 80.1302 859.534 80.599 859.18 80.9844C858.831 81.3646 858.409 81.6562 857.914 81.8594C857.419 82.0573 856.859 82.1562 856.234 82.1562C855.651 82.1562 855.115 82.0573 854.625 81.8594C854.141 81.6562 853.721 81.3646 853.367 80.9844C853.013 80.599 852.74 80.1302 852.547 79.5781C852.354 79.0208 852.258 78.388 852.258 77.6797C852.258 76.737 852.419 75.9349 852.742 75.2734C853.065 74.6068 853.526 74.1016 854.125 73.7578C854.729 73.4089 855.448 73.2344 856.281 73.2344C857.073 73.2344 857.768 73.4089 858.367 73.7578C858.966 74.1068 859.432 74.612 859.766 75.2734C860.099 75.9349 860.266 76.737 860.266 77.6797ZM853.867 77.6797C853.867 78.3411 853.951 78.9115 854.117 79.3906C854.289 79.8646 854.549 80.2292 854.898 80.4844C855.253 80.7396 855.708 80.8672 856.266 80.8672C856.812 80.8672 857.263 80.7396 857.617 80.4844C857.971 80.2292 858.232 79.8646 858.398 79.3906C858.565 78.9115 858.648 78.3411 858.648 77.6797C858.648 77.0234 858.565 76.4609 858.398 75.9922C858.232 75.5234 857.971 75.1641 857.617 74.9141C857.268 74.6641 856.812 74.5391 856.25 74.5391C855.427 74.5391 854.823 74.8151 854.438 75.3672C854.057 75.9141 853.867 76.6849 853.867 77.6797ZM866.586 73.2344C866.742 73.2344 866.911 73.2448 867.094 73.2656C867.276 73.2812 867.432 73.3021 867.562 73.3281L867.398 74.7891C867.273 74.7578 867.128 74.7318 866.961 74.7109C866.799 74.6901 866.648 74.6797 866.508 74.6797C866.174 74.6797 865.857 74.7422 865.555 74.8672C865.253 74.9922 864.987 75.1745 864.758 75.4141C864.529 75.6484 864.349 75.9375 864.219 76.2812C864.089 76.6198 864.023 77.0078 864.023 77.4453V82H862.445V73.3906H863.711L863.898 74.9453H863.969C864.146 74.6328 864.359 74.3464 864.609 74.0859C864.865 73.8255 865.156 73.6198 865.484 73.4688C865.818 73.3125 866.185 73.2344 866.586 73.2344ZM875.258 82L871.984 73.3906H873.648L875.484 78.5234C875.604 78.862 875.721 79.2318 875.836 79.6328C875.956 80.0339 876.036 80.3646 876.078 80.625H876.133C876.185 80.3594 876.273 80.026 876.398 79.625C876.523 79.224 876.643 78.8568 876.758 78.5234L878.586 73.3906H880.258L876.977 82H875.258ZM883.172 73.3906V82H881.602V73.3906H883.172ZM882.398 70.1328C882.648 70.1328 882.862 70.2057 883.039 70.3516C883.221 70.4974 883.312 70.7344 883.312 71.0625C883.312 71.3906 883.221 71.6302 883.039 71.7812C882.862 71.9271 882.648 72 882.398 72C882.143 72 881.927 71.9271 881.75 71.7812C881.578 71.6302 881.492 71.3906 881.492 71.0625C881.492 70.7344 881.578 70.4974 881.75 70.3516C881.927 70.2057 882.143 70.1328 882.398 70.1328ZM891.531 79.5938C891.531 80.151 891.393 80.6224 891.117 81.0078C890.846 81.388 890.451 81.6745 889.93 81.8672C889.409 82.0599 888.784 82.1562 888.055 82.1562C887.451 82.1562 886.93 82.1094 886.492 82.0156C886.055 81.9271 885.659 81.7969 885.305 81.625V80.2344C885.685 80.4167 886.125 80.5781 886.625 80.7188C887.125 80.8594 887.615 80.9297 888.094 80.9297C888.766 80.9297 889.25 80.8229 889.547 80.6094C889.849 80.3958 890 80.1068 890 79.7422C890 79.5286 889.94 79.3411 889.82 79.1797C889.701 79.013 889.49 78.849 889.188 78.6875C888.891 78.5208 888.464 78.3307 887.906 78.1172C887.359 77.9036 886.891 77.6901 886.5 77.4766C886.115 77.263 885.82 77.0052 885.617 76.7031C885.414 76.401 885.312 76.0104 885.312 75.5312C885.312 74.7865 885.609 74.2188 886.203 73.8281C886.802 73.4323 887.591 73.2344 888.57 73.2344C889.091 73.2344 889.581 73.2865 890.039 73.3906C890.503 73.4948 890.945 73.6406 891.367 73.8281L890.859 75.0391C890.484 74.8776 890.099 74.7448 889.703 74.6406C889.307 74.5312 888.904 74.4766 888.492 74.4766C887.956 74.4766 887.544 74.5625 887.258 74.7344C886.977 74.9062 886.836 75.1432 886.836 75.4453C886.836 75.6797 886.901 75.875 887.031 76.0312C887.167 76.1875 887.391 76.3411 887.703 76.4922C888.016 76.638 888.438 76.8125 888.969 77.0156C889.495 77.2135 889.948 77.4193 890.328 77.6328C890.714 77.8464 891.01 78.1068 891.219 78.4141C891.427 78.7214 891.531 79.1146 891.531 79.5938ZM896.867 73.2422C897.93 73.2422 898.724 73.4792 899.25 73.9531C899.776 74.4219 900.039 75.1641 900.039 76.1797V82H898.914L898.609 80.75H898.547C898.307 81.0625 898.057 81.3229 897.797 81.5312C897.536 81.7396 897.234 81.8958 896.891 82C896.552 82.1042 896.138 82.1562 895.648 82.1562C895.128 82.1562 894.664 82.0625 894.258 81.875C893.852 81.6875 893.531 81.4062 893.297 81.0312C893.068 80.651 892.953 80.1693 892.953 79.5859C892.953 78.7109 893.289 78.0469 893.961 77.5938C894.633 77.1406 895.651 76.8932 897.016 76.8516L898.5 76.7891V76.3047C898.5 75.6328 898.349 75.1589 898.047 74.8828C897.75 74.6068 897.333 74.4688 896.797 74.4688C896.354 74.4688 895.93 74.5339 895.523 74.6641C895.117 74.7891 894.727 74.9401 894.352 75.1172L893.852 73.9766C894.258 73.7682 894.719 73.5938 895.234 73.4531C895.755 73.3125 896.299 73.2422 896.867 73.2422ZM898.484 77.8203L897.281 77.875C896.286 77.9115 895.586 78.0781 895.18 78.375C894.779 78.6667 894.578 79.0755 894.578 79.6016C894.578 80.0599 894.716 80.3958 894.992 80.6094C895.268 80.8229 895.633 80.9297 896.086 80.9297C896.784 80.9297 897.357 80.7344 897.805 80.3438C898.258 79.9479 898.484 79.3646 898.484 78.5938V77.8203Z" fill="#616D92"/>
<path d="M740 116H756" stroke="#D7DAE8" stroke-width="2"/>
<path d="M756 116H840.5" stroke="#D7DAE8" stroke-width="2"/>
<rect x="840.5" y="106" width="20" height="20" rx="10" fill="#D7DAE8"/>
<path d="M850.515 115.537C850.974 115.537 851.377 115.62 851.726 115.786C852.077 115.949 852.351 116.19 852.546 116.509C852.741 116.825 852.839 117.212 852.839 117.671C852.839 118.172 852.733 118.605 852.521 118.97C852.31 119.331 851.999 119.609 851.589 119.805C851.179 120 850.679 120.098 850.09 120.098C849.715 120.098 849.366 120.065 849.04 120C848.718 119.935 848.439 119.837 848.205 119.707V118.672C848.449 118.809 848.742 118.921 849.084 119.009C849.426 119.093 849.753 119.136 850.065 119.136C850.397 119.136 850.682 119.087 850.92 118.989C851.158 118.892 851.34 118.742 851.467 118.54C851.597 118.338 851.662 118.083 851.662 117.773C851.662 117.363 851.53 117.048 851.267 116.826C851.006 116.602 850.598 116.489 850.041 116.489C849.846 116.489 849.637 116.507 849.416 116.543C849.198 116.576 849.016 116.611 848.869 116.65L848.366 116.353L848.635 112.861H852.346V113.872H849.646L849.489 115.649C849.606 115.623 849.746 115.599 849.909 115.576C850.072 115.55 850.274 115.537 850.515 115.537Z" fill="#363B51"/>
<path d="M860.5 116H945" stroke="#D7DAE8" stroke-width="2"/>
<path d="M945 116H961" stroke="#D7DAE8" stroke-width="2"/>
<g clip-path="url(#clip2_3796_132267)">
<path d="M1049.65 26.3826L1036.52 40.5655C1035.92 41.2141 1036.38 42.2669 1037.26 42.2669H1064.48C1065.38 42.2669 1065.83 41.1793 1065.19 40.54L1051.11 26.3571C1050.71 25.9483 1050.04 25.9599 1049.65 26.3826Z" fill="#9DC3FF"/>
<path d="M1025.48 31.4306L1013.14 40.4347C1012.35 41.0126 1012.75 42.2662 1013.73 42.2662H1039.31C1040.3 42.2662 1040.7 40.9767 1039.88 40.4156L1026.64 31.4115C1026.29 31.1706 1025.82 31.1782 1025.48 31.4306Z" fill="#9DC3FF"/>
<path d="M1038.61 23.998L1017.03 48.9188C1016.46 49.575 1016.93 50.5951 1017.8 50.5951H1060.98C1061.87 50.5951 1062.33 49.5409 1061.73 48.8927L1038.61 23.998Z" fill="#9DC3FF"/>
<path d="M1042.12 50.5967L1040.27 31.8632L1041.3 26.1445L1061.79 48.9058C1062.37 49.5577 1061.91 50.5967 1061.03 50.5967H1042.12Z" fill="#5093FD"/>
<path d="M1051.6 38.2129L1061.06 48.1185" stroke="#1E6DEB" stroke-width="0.900513"/>
<path d="M1037.74 24.4245L1027.84 35.2737C1027.17 36.0094 1027.51 37.1593 1028.5 37.2504C1031.13 37.492 1034.43 37.0526 1036.76 35.6937C1037.23 35.4242 1037.8 35.3859 1038.28 35.6145C1041.44 37.1086 1045.29 37.2998 1048.86 37.0929C1049.98 37.028 1050.48 35.6878 1049.71 34.8763L1039.72 24.4032C1039.18 23.8367 1038.27 23.8464 1037.74 24.4245Z" fill="white"/>
<path d="M1021.3 17.0916C1018.84 16.6117 1016.62 20.7032 1015.86 22.2922C1015.72 22.5821 1015.93 22.9061 1016.26 22.9061H1031.46C1031.81 22.9061 1032.01 22.5372 1031.81 22.2546C1031.15 21.3154 1029.78 19.6986 1028.32 19.7543C1026.98 19.8054 1026.04 20.2467 1024.89 20.2045C1023.07 20.1376 1023.42 17.5069 1021.3 17.0916Z" fill="#E6EFFF"/>
<path d="M1055.34 25.6403C1053.39 25.2428 1051.62 28.5527 1050.97 29.9534C1050.83 30.2422 1051.05 30.5602 1051.37 30.5602H1063.44C1063.79 30.5602 1063.99 30.1977 1063.8 29.9164C1063.24 29.1128 1062.17 27.8481 1061.03 27.8933C1059.94 27.9366 1059.18 28.31 1058.25 28.2743C1056.77 28.2177 1057.06 25.9917 1055.34 25.6403Z" fill="#E6EFFF"/>
<path d="M1048.66 15.5756C1048.66 15.2509 1048.33 15.0344 1048.02 15.1443C1043.91 16.6217 1043.62 13.3448 1039.29 14.7817C1039.12 14.8413 1038.99 15.0124 1038.99 15.2012V21.7311C1038.99 22.0925 1039.41 22.328 1039.74 22.1818C1040.65 21.7807 1042.22 21.3501 1043.57 22.3317C1045.24 23.5384 1047.57 22.943 1048.38 22.6823C1048.55 22.6257 1048.66 22.4611 1048.66 22.2774V15.5756Z" fill="#BB5FEC"/>
<path d="M1038.99 14.4082V25.6059" stroke="#003D9F" stroke-width="0.900513" stroke-linecap="round"/>
<path d="M1048.05 14.7879L1043.05 22.005C1045.01 23.4465 1046.07 23.318 1048.41 22.7439C1048.56 22.7069 1048.66 22.5715 1048.66 22.4164V14.9802C1048.66 14.6493 1048.24 14.5159 1048.05 14.7879Z" fill="#8935B6"/>
</g>
<rect x="945" y="56" width="189" height="40" rx="8" stroke="#D7DAE8"/>
<path d="M996.445 82H990.031V70.5781H996.445V71.9531H991.633V75.3516H996.156V76.7109H991.633V80.6172H996.445V82ZM1003.02 73.2344C1004.02 73.2344 1004.78 73.4844 1005.31 73.9844C1005.85 74.4844 1006.12 75.2865 1006.12 76.3906V82H1004.56V76.6016C1004.56 75.9141 1004.41 75.3984 1004.11 75.0547C1003.81 74.7057 1003.34 74.5312 1002.72 74.5312C1001.83 74.5312 1001.2 74.7943 1000.84 75.3203C1000.49 75.8464 1000.31 76.6094 1000.31 77.6094V82H998.742V73.3906H999.984L1000.21 74.6016H1000.3C1000.48 74.2995 1000.71 74.0469 1000.99 73.8438C1001.27 73.6406 1001.59 73.4896 1001.93 73.3906C1002.28 73.2865 1002.64 73.2344 1003.02 73.2344ZM1012.88 73.2344C1013.04 73.2344 1013.21 73.2448 1013.39 73.2656C1013.57 73.2812 1013.73 73.3021 1013.86 73.3281L1013.7 74.7891C1013.57 74.7578 1013.42 74.7318 1013.26 74.7109C1013.1 74.6901 1012.95 74.6797 1012.8 74.6797C1012.47 74.6797 1012.15 74.7422 1011.85 74.8672C1011.55 74.9922 1011.28 75.1745 1011.05 75.4141C1010.83 75.6484 1010.65 75.9375 1010.52 76.2812C1010.39 76.6198 1010.32 77.0078 1010.32 77.4453V82H1008.74V73.3906H1010.01L1010.2 74.9453H1010.27C1010.44 74.6328 1010.66 74.3464 1010.91 74.0859C1011.16 73.8255 1011.45 73.6198 1011.78 73.4688C1012.11 73.3125 1012.48 73.2344 1012.88 73.2344ZM1022.98 77.6797C1022.98 78.388 1022.89 79.0208 1022.7 79.5781C1022.52 80.1302 1022.25 80.599 1021.9 80.9844C1021.55 81.3646 1021.13 81.6562 1020.63 81.8594C1020.14 82.0573 1019.58 82.1562 1018.95 82.1562C1018.37 82.1562 1017.83 82.0573 1017.34 81.8594C1016.86 81.6562 1016.44 81.3646 1016.09 80.9844C1015.73 80.599 1015.46 80.1302 1015.27 79.5781C1015.07 79.0208 1014.98 78.388 1014.98 77.6797C1014.98 76.737 1015.14 75.9349 1015.46 75.2734C1015.78 74.6068 1016.24 74.1016 1016.84 73.7578C1017.45 73.4089 1018.17 73.2344 1019 73.2344C1019.79 73.2344 1020.49 73.4089 1021.09 73.7578C1021.68 74.1068 1022.15 74.612 1022.48 75.2734C1022.82 75.9349 1022.98 76.737 1022.98 77.6797ZM1016.59 77.6797C1016.59 78.3411 1016.67 78.9115 1016.84 79.3906C1017.01 79.8646 1017.27 80.2292 1017.62 80.4844C1017.97 80.7396 1018.43 80.8672 1018.98 80.8672C1019.53 80.8672 1019.98 80.7396 1020.34 80.4844C1020.69 80.2292 1020.95 79.8646 1021.12 79.3906C1021.28 78.9115 1021.37 78.3411 1021.37 77.6797C1021.37 77.0234 1021.28 76.4609 1021.12 75.9922C1020.95 75.5234 1020.69 75.1641 1020.34 74.9141C1019.99 74.6641 1019.53 74.5391 1018.97 74.5391C1018.15 74.5391 1017.54 74.8151 1017.16 75.3672C1016.78 75.9141 1016.59 76.6849 1016.59 77.6797ZM1026.74 82H1025.16V69.8438H1026.74V82ZM1037.12 70.3984C1037.7 70.3984 1038.2 70.4974 1038.62 70.6953C1039.05 70.888 1039.38 71.1693 1039.62 71.5391C1039.86 71.9036 1039.98 72.3438 1039.98 72.8594C1039.98 73.5521 1039.76 74.138 1039.31 74.6172C1038.88 75.0911 1038.32 75.5208 1037.66 75.9062L1040.59 78.75C1040.86 78.4115 1041.08 78.0286 1041.25 77.6016C1041.43 77.1693 1041.58 76.7083 1041.7 76.2188H1043.3C1043.14 76.8854 1042.92 77.5208 1042.64 78.125C1042.37 78.7292 1042.03 79.2682 1041.61 79.7422L1043.91 82H1041.86L1040.57 80.7422C1040.25 81.0234 1039.9 81.2708 1039.52 81.4844C1039.15 81.6979 1038.73 81.8646 1038.28 81.9844C1037.83 82.099 1037.33 82.1562 1036.77 82.1562C1036.01 82.1562 1035.35 82.0339 1034.79 81.7891C1034.23 81.5391 1033.8 81.1797 1033.5 80.7109C1033.2 80.2422 1033.05 79.6745 1033.05 79.0078C1033.05 78.4557 1033.14 77.9844 1033.34 77.5938C1033.53 77.1979 1033.8 76.849 1034.16 76.5469C1034.52 76.2396 1034.95 75.9453 1035.45 75.6641C1035.2 75.3828 1034.97 75.1042 1034.77 74.8281C1034.56 74.5469 1034.4 74.2526 1034.28 73.9453C1034.16 73.6328 1034.1 73.2917 1034.1 72.9219C1034.1 72.3958 1034.23 71.9453 1034.48 71.5703C1034.73 71.1953 1035.08 70.9062 1035.52 70.7031C1035.98 70.5 1036.51 70.3984 1037.12 70.3984ZM1036.39 76.6406C1036.04 76.8542 1035.73 77.0677 1035.48 77.2812C1035.22 77.4896 1035.03 77.724 1034.89 77.9844C1034.76 78.2448 1034.7 78.5547 1034.7 78.9141C1034.7 79.487 1034.89 79.9453 1035.28 80.2891C1035.68 80.6276 1036.2 80.7969 1036.84 80.7969C1037.46 80.7969 1037.99 80.6979 1038.44 80.5C1038.89 80.3021 1039.27 80.0599 1039.59 79.7734L1036.39 76.6406ZM1037.09 71.6641C1036.66 71.6641 1036.31 71.7734 1036.03 71.9922C1035.75 72.2109 1035.61 72.5339 1035.61 72.9609C1035.61 73.3203 1035.71 73.6562 1035.9 73.9688C1036.1 74.2812 1036.37 74.6224 1036.72 74.9922C1037.32 74.6589 1037.76 74.3359 1038.04 74.0234C1038.32 73.7109 1038.46 73.3438 1038.46 72.9219C1038.46 72.5365 1038.33 72.2318 1038.07 72.0078C1037.82 71.7786 1037.49 71.6641 1037.09 71.6641ZM1055.16 79.5938C1055.16 80.151 1055.02 80.6224 1054.74 81.0078C1054.47 81.388 1054.08 81.6745 1053.55 81.8672C1053.03 82.0599 1052.41 82.1562 1051.68 82.1562C1051.08 82.1562 1050.55 82.1094 1050.12 82.0156C1049.68 81.9271 1049.28 81.7969 1048.93 81.625V80.2344C1049.31 80.4167 1049.75 80.5781 1050.25 80.7188C1050.75 80.8594 1051.24 80.9297 1051.72 80.9297C1052.39 80.9297 1052.88 80.8229 1053.17 80.6094C1053.47 80.3958 1053.62 80.1068 1053.62 79.7422C1053.62 79.5286 1053.57 79.3411 1053.45 79.1797C1053.33 79.013 1053.11 78.849 1052.81 78.6875C1052.52 78.5208 1052.09 78.3307 1051.53 78.1172C1050.98 77.9036 1050.52 77.6901 1050.12 77.4766C1049.74 77.263 1049.45 77.0052 1049.24 76.7031C1049.04 76.401 1048.94 76.0104 1048.94 75.5312C1048.94 74.7865 1049.23 74.2188 1049.83 73.8281C1050.43 73.4323 1051.22 73.2344 1052.2 73.2344C1052.72 73.2344 1053.21 73.2865 1053.66 73.3906C1054.13 73.4948 1054.57 73.6406 1054.99 73.8281L1054.48 75.0391C1054.11 74.8776 1053.72 74.7448 1053.33 74.6406C1052.93 74.5312 1052.53 74.4766 1052.12 74.4766C1051.58 74.4766 1051.17 74.5625 1050.88 74.7344C1050.6 74.9062 1050.46 75.1432 1050.46 75.4453C1050.46 75.6797 1050.53 75.875 1050.66 76.0312C1050.79 76.1875 1051.02 76.3411 1051.33 76.4922C1051.64 76.638 1052.06 76.8125 1052.59 77.0156C1053.12 77.2135 1053.57 77.4193 1053.95 77.6328C1054.34 77.8464 1054.64 78.1068 1054.84 78.4141C1055.05 78.7214 1055.16 79.1146 1055.16 79.5938ZM1060.57 73.2344C1061.32 73.2344 1061.96 73.3958 1062.5 73.7188C1063.04 74.0365 1063.45 74.487 1063.73 75.0703C1064.02 75.6536 1064.16 76.3411 1064.16 77.1328V78.0234H1058.32C1058.34 78.9453 1058.57 79.6536 1059.03 80.1484C1059.49 80.638 1060.13 80.8828 1060.96 80.8828C1061.51 80.8828 1061.99 80.8307 1062.42 80.7266C1062.85 80.6224 1063.29 80.4688 1063.75 80.2656V81.5859C1063.32 81.7839 1062.88 81.9271 1062.45 82.0156C1062.01 82.1094 1061.49 82.1562 1060.89 82.1562C1060.06 82.1562 1059.33 81.9896 1058.7 81.6562C1058.07 81.3229 1057.58 80.8307 1057.23 80.1797C1056.89 79.5234 1056.71 78.7161 1056.71 77.7578C1056.71 76.8099 1056.87 76 1057.19 75.3281C1057.51 74.651 1057.95 74.1328 1058.53 73.7734C1059.11 73.4141 1059.79 73.2344 1060.57 73.2344ZM1060.56 74.4531C1059.93 74.4531 1059.42 74.6615 1059.03 75.0781C1058.65 75.4896 1058.42 76.0807 1058.35 76.8516H1062.59C1062.58 76.3776 1062.51 75.9609 1062.36 75.6016C1062.21 75.2422 1061.99 74.9609 1061.7 74.7578C1061.4 74.5547 1061.03 74.4531 1060.56 74.4531ZM1069.3 80.8828C1069.53 80.8828 1069.76 80.8646 1069.98 80.8281C1070.21 80.7865 1070.41 80.7344 1070.58 80.6719V81.875C1070.4 81.9531 1070.16 82.0182 1069.87 82.0703C1069.58 82.1276 1069.28 82.1562 1068.97 82.1562C1068.5 82.1562 1068.08 82.0755 1067.7 81.9141C1067.32 81.7526 1067.01 81.4766 1066.78 81.0859C1066.56 80.6953 1066.45 80.1536 1066.45 79.4609V74.6016H1065.25V73.875L1066.5 73.2969L1067.05 71.4375H1068.02V73.3906H1070.52V74.6016H1068.02V79.4375C1068.02 79.9219 1068.14 80.2839 1068.37 80.5234C1068.6 80.763 1068.91 80.8828 1069.3 80.8828ZM1075.32 80.8828C1075.54 80.8828 1075.77 80.8646 1076 80.8281C1076.23 80.7865 1076.43 80.7344 1076.59 80.6719V81.875C1076.42 81.9531 1076.18 82.0182 1075.88 82.0703C1075.59 82.1276 1075.29 82.1562 1074.98 82.1562C1074.52 82.1562 1074.09 82.0755 1073.71 81.9141C1073.33 81.7526 1073.03 81.4766 1072.8 81.0859C1072.57 80.6953 1072.46 80.1536 1072.46 79.4609V74.6016H1071.27V73.875L1072.52 73.2969L1073.07 71.4375H1074.04V73.3906H1076.53V74.6016H1074.04V79.4375C1074.04 79.9219 1074.15 80.2839 1074.38 80.5234C1074.62 80.763 1074.93 80.8828 1075.32 80.8828ZM1079.91 82H1078.34V69.8438H1079.91V82ZM1085.96 73.2344C1086.71 73.2344 1087.35 73.3958 1087.89 73.7188C1088.43 74.0365 1088.84 74.487 1089.12 75.0703C1089.41 75.6536 1089.55 76.3411 1089.55 77.1328V78.0234H1083.71C1083.73 78.9453 1083.96 79.6536 1084.42 80.1484C1084.88 80.638 1085.52 80.8828 1086.35 80.8828C1086.9 80.8828 1087.39 80.8307 1087.81 80.7266C1088.24 80.6224 1088.68 80.4688 1089.14 80.2656V81.5859C1088.71 81.7839 1088.27 81.9271 1087.84 82.0156C1087.4 82.1094 1086.89 82.1562 1086.28 82.1562C1085.45 82.1562 1084.72 81.9896 1084.09 81.6562C1083.46 81.3229 1082.97 80.8307 1082.62 80.1797C1082.28 79.5234 1082.1 78.7161 1082.1 77.7578C1082.1 76.8099 1082.26 76 1082.58 75.3281C1082.9 74.651 1083.34 74.1328 1083.92 73.7734C1084.5 73.4141 1085.18 73.2344 1085.96 73.2344ZM1085.95 74.4531C1085.32 74.4531 1084.81 74.6615 1084.42 75.0781C1084.04 75.4896 1083.81 76.0807 1083.74 76.8516H1087.98C1087.97 76.3776 1087.9 75.9609 1087.75 75.6016C1087.6 75.2422 1087.38 74.9609 1087.09 74.7578C1086.79 74.5547 1086.42 74.4531 1085.95 74.4531Z" fill="#616D92"/>
<path d="M929 116H945" stroke="#D7DAE8" stroke-width="2"/>
<path d="M945 116H1029.5" stroke="#D7DAE8" stroke-width="2"/>
<rect x="1029.5" y="106" width="20" height="20" rx="10" fill="#D7DAE8"/>
<path d="M1037.1 116.958C1037.1 116.538 1037.13 116.125 1037.19 115.718C1037.25 115.311 1037.35 114.93 1037.5 114.575C1037.64 114.22 1037.85 113.908 1038.1 113.638C1038.36 113.368 1038.69 113.156 1039.08 113.003C1039.48 112.847 1039.95 112.769 1040.51 112.769C1040.65 112.769 1040.81 112.775 1040.99 112.788C1041.17 112.801 1041.32 112.822 1041.43 112.852V113.804C1041.31 113.768 1041.17 113.74 1041.01 113.721C1040.86 113.701 1040.71 113.691 1040.56 113.691C1039.97 113.691 1039.5 113.805 1039.16 114.033C1038.83 114.258 1038.59 114.567 1038.45 114.961C1038.3 115.352 1038.22 115.799 1038.2 116.304H1038.25C1038.35 116.141 1038.47 115.996 1038.62 115.869C1038.77 115.742 1038.95 115.641 1039.16 115.566C1039.37 115.488 1039.62 115.449 1039.9 115.449C1040.31 115.449 1040.68 115.537 1040.98 115.713C1041.29 115.885 1041.53 116.136 1041.7 116.465C1041.87 116.794 1041.95 117.192 1041.95 117.661C1041.95 118.166 1041.86 118.6 1041.66 118.965C1041.47 119.329 1041.2 119.609 1040.85 119.805C1040.5 120 1040.09 120.098 1039.61 120.098C1039.25 120.098 1038.92 120.033 1038.62 119.902C1038.31 119.772 1038.05 119.577 1037.82 119.316C1037.59 119.056 1037.42 118.73 1037.29 118.34C1037.16 117.946 1037.1 117.485 1037.1 116.958ZM1039.59 119.15C1039.96 119.15 1040.26 119.03 1040.48 118.789C1040.71 118.545 1040.82 118.172 1040.82 117.671C1040.82 117.264 1040.72 116.942 1040.52 116.704C1040.32 116.466 1040.02 116.348 1039.62 116.348C1039.35 116.348 1039.11 116.406 1038.9 116.523C1038.7 116.641 1038.54 116.789 1038.43 116.968C1038.32 117.147 1038.26 117.329 1038.26 117.515C1038.26 117.703 1038.29 117.894 1038.34 118.086C1038.4 118.278 1038.48 118.455 1038.59 118.618C1038.7 118.778 1038.84 118.906 1039.01 119.004C1039.17 119.102 1039.37 119.15 1039.59 119.15Z" fill="#363B51"/>
<defs>
<clipPath id="clip0_3796_132267">
<rect width="56" height="56" fill="white" transform="translate(255.5)"/>
</clipPath>
<clipPath id="clip1_3796_132267">
<rect width="56" height="56" fill="white" transform="translate(822.5)"/>
</clipPath>
<clipPath id="clip2_3796_132267">
<rect width="56" height="56" fill="white" transform="translate(1011.5)"/>
</clipPath>
</defs>
</svg>

