<svg xmlns="http://www.w3.org/2000/svg" width="80" height="81" viewBox="0 0 80 81" fill="none"><rect width="80" height="80" transform="translate(0 0.985352)" fill="white"></rect><g clip-path="url(#clip0_900_99021)"><path d="M60.8643 28.7508C67.8586 42.0363 70.1917 57.4396 56.8358 64.4164C40.9735 72.7025 14.5085 65.9818 10.5513 48.9823C7.53657 36.0317 14.1121 18.1911 27.146 13.6208C41.3352 8.64542 53.9751 15.6649 60.8643 28.7508Z" fill="#E6EFFF"></path><path d="M7.3584 45.9105V72.7143H40.7142" stroke="#468CFB" stroke-width="1.4891" stroke-linecap="round" stroke-linejoin="round"></path><rect x="11.5278" y="51.2714" width="7.74332" height="17.8692" rx="1.19128" fill="#0DA489"></rect><rect x="22.2495" y="47.1019" width="7.74332" height="22.0387" rx="1.19128" fill="#468CFB"></rect><rect x="32.9707" y="52.4627" width="7.74332" height="16.6779" rx="1.19128" fill="#FA3E70"></rect><circle cx="9.74096" cy="19.1067" r="2.38256" fill="#5C9BFF"></circle><circle cx="9.74096" cy="26.2542" r="2.38256" fill="#5C9BFF"></circle><circle cx="9.74096" cy="33.4019" r="2.38256" fill="#5C9BFF"></circle><line x1="15.3993" y1="18.8087" x2="26.1208" y2="18.8088" stroke="#5C9BFF" stroke-width="1.78692" stroke-linecap="round"></line><line x1="14.8041" y1="26.5521" x2="29.0995" y2="26.5521" stroke="#5C9BFF" stroke-width="1.78692" stroke-linecap="round"></line><line x1="14.8041" y1="33.6997" x2="25.5256" y2="33.6997" stroke="#5C9BFF" stroke-width="1.78692" stroke-linecap="round"></line></g><ellipse cx="54.7777" cy="26.9102" rx="19.2162" ry="19.0002" fill="#FFC85C"></ellipse><path d="M54.7781 45.9105C65.3909 45.9105 73.9942 37.4038 73.9942 26.9102H69.4721L48.3828 44.8329C50.3834 45.5308 52.5359 45.9105 54.7781 45.9105Z" fill="#B75327"></path><circle cx="51.9709" cy="26.4784" r="19.0002" fill="#FFEBBF"></circle><ellipse cx="51.9706" cy="27.1262" rx="15.9775" ry="15.7616" fill="#FFC85C"></ellipse><path d="M51.96 26.57C49.3495 26.57 47.2334 24.8177 47.2334 22.6562C47.2334 20.4947 49.3495 18.7425 51.96 18.7425C54.0446 18.7425 55.814 19.86 56.4422 21.411" stroke="#622E11" stroke-width="1.72729" stroke-linecap="round"></path><path d="M51.703 26.5699C54.3204 26.5699 56.4422 28.2191 56.4422 30.2535C56.4422 32.2878 54.3204 33.937 51.703 33.937C49.6395 33.937 47.884 32.912 47.2334 31.4813" stroke="#622E11" stroke-width="1.72729" stroke-linecap="round"></path><line x1="51.7802" y1="15.9226" x2="51.7802" y2="36.757" stroke="#622E11" stroke-width="1.72729" stroke-linecap="round"></line><path d="M36.4248 24.7512L51.5386 11.4876C45.8595 10.7558 43.2947 13.4695 41.4627 14.9178C37.4324 18.0279 36.5775 22.007 36.4248 24.7512Z" fill="#F4A04F"></path><ellipse cx="66.3425" cy="22.1571" rx="1.60517" ry="1.28413" fill="white"></ellipse><path d="M61.8886 12.992C62.0955 12.433 62.8861 12.433 63.0929 12.992L63.8624 15.0713C63.9274 15.247 64.0659 15.3856 64.2417 15.4506L66.321 16.22C66.88 16.4269 66.88 17.2175 66.321 17.4244L64.2417 18.1938C64.0659 18.2588 63.9274 18.3974 63.8624 18.5731L63.0929 20.6525C62.8861 21.2114 62.0955 21.2114 61.8886 20.6525L61.1192 18.5731C61.0542 18.3974 60.9156 18.2588 60.7398 18.1938L58.6605 17.4244C58.1015 17.2175 58.1015 16.4269 58.6605 16.22L60.7398 15.4506C60.9156 15.3856 61.0542 15.247 61.1192 15.0713L61.8886 12.992Z" fill="white"></path><path d="M54.1298 11.4148C48.6338 10.9651 37.3122 13.3483 35.9932 26.4785" stroke="#B75327" stroke-width="1.08438" stroke-linecap="round"></path><defs><clipPath id="clip0_900_99021"><rect width="71.4768" height="71.4768" fill="white" transform="translate(0.806152 6.00266)"></rect></clipPath></defs></svg>