<svg aria-hidden="true" data-icon-color="" data-icon-contrast="mid" role="img" viewBox="0 0 24 24" xmlns="http://www.w3.org/2000/svg" class="css-wew9bn"><path d="M18 20C19.1046 20 20 19.1046 20 18V16C20 15.4477 19.5523 15 19 15C18.4477 15 18 15.4477 18 16V18L6 18L6 6L18 6V8C18 8.55229 18.4477 9 19 9C19.5523 9 20 8.55229 20 8V6C20 4.89543 19.1046 4 18 4H6C4.89543 4 4 4.89543 4 6V18C4 19.1046 4.89543 20 6 20L18 20Z"></path><path d="M14.7071 15.7071L18.4142 12L14.7071 8.29289C14.3166 7.90237 13.6834 7.90237 13.2929 8.29289C12.9024 8.68342 12.9024 9.31658 13.2929 9.70711L14.5858 11H9C8.44772 11 8 11.4477 8 12C8 12.5523 8.44772 13 9 13H14.5858L13.2929 14.2929C12.9024 14.6834 12.9024 15.3166 13.2929 15.7071C13.6834 16.0976 14.3166 16.0976 14.7071 15.7071Z"></path></svg>