<svg width="80" height="80" viewBox="0 0 80 80" fill="none" xmlns="http://www.w3.org/2000/svg">
<path d="M69.5753 37.6814C73.1767 51.757 63.3468 66.1245 46.2404 70.5013C29.134 74.8782 11.8437 62.568 8.24226 48.4925C4.64087 34.4169 18.1596 21.7642 32.9055 18.3837C48.6484 14.7748 65.9739 23.6058 69.5753 37.6814Z" fill="#E6EFFF"/>
<ellipse cx="46.9262" cy="20.1906" rx="14.6459" ry="14.6989" fill="#FFCC60"/>
<mask id="mask0_14426_13426" style="mask-type:alpha" maskUnits="userSpaceOnUse" x="32" y="5" width="30" height="30">
<ellipse cx="46.9262" cy="20.1906" rx="14.6459" ry="14.6989" fill="#087463"/>
</mask>
<g mask="url(#mask0_14426_13426)">
<path d="M34.999 35.3073C34.999 31.797 37.498 28.7841 40.9477 28.1351L47.4776 26.9067L53.7646 28.1133C57.2148 28.7755 59.7091 31.794 59.7091 35.3073H34.999Z" fill="#0452D0"/>
</g>
<path d="M36.6818 22.233C38.3273 8.67649 45.094 8.338 46.8594 8.37557L45.5003 18.5067L43.0293 29.1311C42.1677 28.821 41.1509 28.5618 40.1726 28.3035C37.4204 27.5768 36.3387 25.0588 36.6818 22.233Z" fill="#622E11"/>
<path d="M57.2841 22.233C55.6385 8.67649 48.8718 8.338 47.1064 8.37557L48.4655 18.5067L50.9365 29.1311C51.7981 28.821 52.815 28.5618 53.7932 28.3035C56.5454 27.5768 57.6271 25.0588 57.2841 22.233Z" fill="#622E11"/>
<path d="M42.9054 23.4487H51.4219L51.3554 23.6465C50.759 25.4199 50.9301 27.3618 51.8273 29.0037C51.9584 29.2437 51.9172 29.5413 51.7257 29.7367L50.7508 30.7311C48.858 32.6618 45.7735 32.7389 43.7866 30.9052L42.5223 29.7384C42.313 29.5452 42.2658 29.2326 42.4088 28.9862C43.3531 27.3596 43.5547 25.4062 42.9625 23.621L42.9054 23.4487Z" fill="#DE9952"/>
<g style="mix-blend-mode:multiply" opacity="0.5">
<path fill-rule="evenodd" clip-rule="evenodd" d="M51.2045 24.165C50.7994 25.7926 51.0173 27.5206 51.8278 29.0038C51.9137 29.1611 51.9257 29.3431 51.8698 29.5048C46.7689 29.7771 44.51 26.8194 44.0176 25.3011L46.9828 26.7837C48.8447 26.8723 50.4481 25.2444 51.2045 24.165Z" fill="#DE9952"/>
</g>
<path d="M41.4034 16.2837C41.5524 13.85 43.2467 11.7868 45.6049 11.1674C49.1174 10.2447 52.575 12.8299 52.6836 16.4599L52.7716 19.4039C52.7835 19.7996 52.7217 20.194 52.5894 20.5671L51.7507 22.9333C51.3904 23.9497 50.7423 24.8393 49.8852 25.4937L48.5238 26.5332C47.6608 27.1922 46.4636 27.1922 45.6006 26.5332L44.1647 25.4369C43.3544 24.8181 42.7299 23.9884 42.3595 23.0385L41.4834 20.7914C41.2807 20.2717 41.1934 19.7142 41.2275 19.1575L41.4034 16.2837Z" fill="#DE9952"/>
<path d="M47.7244 12.2054C46.2174 13.3646 43.1942 14.1822 41.5469 14.4293C41.7116 12.4113 43.0789 9.36377 47.2302 9.36377C51.3815 9.36377 53.0783 12.4113 53.4077 13.9351L52.6664 16.0355C52.6664 13.5645 49.3306 10.9699 47.7244 12.2054Z" fill="#622E11"/>
<path d="M46.6123 8.37549H47.2301L47.9714 9.61099H46.3652L46.6123 8.37549Z" fill="#622E11"/>
<ellipse cx="19.2269" cy="41.5498" rx="14.3275" ry="14.3794" fill="#3FB5A0"/>
<mask id="mask1_14426_13426" style="mask-type:alpha" maskUnits="userSpaceOnUse" x="4" y="22" width="30" height="34">
<path fill-rule="evenodd" clip-rule="evenodd" d="M28.7615 22.4814H9.27608V31.2044C6.5776 33.8193 4.89941 37.4879 4.89941 41.5499C4.89941 49.4914 11.3141 55.9293 19.2269 55.9293C27.1398 55.9293 33.5544 49.4914 33.5544 41.5499C33.5544 37.2829 31.7026 33.45 28.7615 30.8166V22.4814Z" fill="#C4C4C4"/>
</mask>
<g mask="url(#mask1_14426_13426)">
<path d="M37.3651 65.1037L31.5044 50.6863C30.1153 47.269 25.006 48.4748 25.2913 52.1525C25.3079 52.3664 25.3457 52.5781 25.4043 52.7845L29.6527 67.7566C30.3294 70.1413 32.9573 71.3782 35.2263 70.38C37.2496 69.4899 38.1975 67.1515 37.3651 65.1037Z" fill="#B6D2FF"/>
<path d="M24.5382 45.7233L25.7835 46.7054L30.3339 49.1595L29.2558 54.1411C29.2558 54.1411 31.8547 68.1679 33.1914 75.2394C28.0191 75.4635 19.5992 75.2394 19.5992 75.2394L8.80554 73.9726L2.11093 48.5825C4.60806 47.1225 11.1311 43.9804 11.1311 43.9804C11.1311 43.9804 12.0969 42.1592 14.283 41.1079C14.283 41.1079 13.999 41.8945 13.999 42.4063C13.999 42.9181 13.9814 43.2888 14.604 43.8144C15.2266 44.3401 17.4542 45.9446 17.4542 45.9446C17.4542 45.9446 19.1544 46.0836 20.7593 48.8778L22.5458 44.5337L22.8087 43.7591L22.3383 42.8185C22.366 42.8738 23.7081 43.441 24.5382 45.7233Z" fill="#B6D2FF"/>
<path d="M-0.566004 50.6916L2.13013 48.501L5.55672 60.494L8.45614 73.7391L-5.90918 66.9518L-2.57043 53.8271C-2.25666 52.5937 -1.55378 51.4942 -0.566004 50.6916Z" fill="#FFCC60"/>
<path d="M14.2034 40.9456C14.4394 40.0083 14.3252 38.5112 14.3252 38.5112H22.4399L22.8051 44.3538L20.8169 49.5878L13.0674 43.2583C13.0674 43.2583 13.9559 41.9292 14.2034 40.9456Z" fill="#934B12"/>
<path d="M3.18457 52.7178L6.21579 66.4241" stroke="#361B07" stroke-width="0.509494"/>
<path d="M19.9777 46.0783C19.4832 43.9023 16.0263 42.5746 16.0263 42.5746L15.2383 38.6348L23.2756 43.7002L23.1833 45.197L20.8188 49.4294C20.8188 49.4294 20.328 47.6195 19.9777 46.0783Z" fill="#693007"/>
<path d="M17.8064 28.3676C17.8064 28.3676 20.2313 26.2881 22.9373 27.1985C25.6433 28.1089 26.2222 29.4189 26.4287 30.017C26.6351 30.615 27.1934 32.4096 27.1102 32.7551C27.027 33.1007 26.7211 33.8647 26.6969 33.9655C26.6726 34.0663 27.743 35.9037 27.4599 37.2064C27.1767 38.509 26.5755 40.0447 26.0604 41.6756C25.7037 42.8051 25.9886 43.1304 25.3599 43.8176C24.3935 44.874 21.7772 44.1104 21.7772 44.1104L16.711 41.7354L14.9904 38.1325L15.6746 33.9317L15.9082 32.392C15.8972 32.3741 17.0719 30.6388 17.8064 28.3676Z" fill="#934B12"/>
<path d="M14.4708 27.4116C14.5428 27.4289 14.6218 27.4175 14.6679 27.3524C15.8012 26.3154 17.6498 25.7247 17.6677 25.7137C17.7823 25.6804 17.8423 25.5578 17.8125 25.4287C17.7791 25.3141 17.6564 25.2541 17.5274 25.2839C17.445 25.3098 15.5641 25.908 14.3668 27.021C14.2705 27.1044 14.2681 27.2409 14.3516 27.3372C14.3988 27.3942 14.442 27.4046 14.4708 27.4116Z" fill="#1E6DEB"/>
<path d="M17.8447 30.6855C18.0766 30.1867 17.9127 28.4836 17.9127 28.4836L11.735 31.1093C11.735 31.1093 11.5723 34.4936 12.6086 36.3106C13.456 37.7966 14.9406 40.0608 14.9406 40.0608L15.5303 38.955L15.7205 34.5181L17.2914 34.7114L16.7235 32.0792C16.7235 32.0792 17.6708 31.0595 17.8447 30.6855Z" fill="#301601"/>
<path d="M24.881 26.4176C25.3207 27.2838 25.5661 28.7546 25.5661 28.7546C25.5661 28.7546 23.9444 27.4563 22.7851 27.2532C21.6643 27.057 20.9057 26.9944 19.8002 27.3665C18.93 27.6593 17.7949 28.5936 17.7949 28.5936C17.7949 28.5936 11.8058 31.3323 11.7097 31.1936C11.6136 31.0549 12.2692 28.511 12.2692 28.511L14.3101 26.3682L17.8556 24.3104L20.3163 24.071C20.3163 24.071 24.1585 24.9946 24.881 26.4176Z" fill="#301601"/>
<path d="M16.1809 35.0126L16.1407 38.5849C13.1591 38.5513 12.8424 36.2117 12.8514 35.4148C12.8604 34.6179 13.1437 32.8897 14.6477 32.9066C15.8509 32.9202 16.1712 34.3163 16.1809 35.0126Z" fill="#934B12"/>
<path d="M21.5068 43.12L25.7042 43.3449C25.7042 43.3449 25.6614 45.0207 24.1915 44.8293C22.7217 44.6378 21.5707 44.1983 21.5707 44.1983L21.5068 43.12Z" fill="#301601"/>
</g>
<ellipse rx="15.8265" ry="15.8839" transform="matrix(-1 0 0 1 53.4391 55.7613)" fill="#70A7FF"/>
<mask id="mask2_14426_13426" style="mask-type:alpha" maskUnits="userSpaceOnUse" x="37" y="39" width="33" height="33">
<ellipse rx="15.8265" ry="15.8839" transform="matrix(-1 0 0 1 53.4391 55.7613)" fill="#09856F"/>
</mask>
<g mask="url(#mask2_14426_13426)">
<path d="M48.6938 63.6667L43.1381 66.9758L39.8897 71.9243C37.5222 79.7232 36.3984 93.9341 36.3984 93.9341L67.6075 93.6007L66.6804 87.0467L74.774 84.918C74.774 84.918 68.6502 70.3307 63.9022 66.4901V66.5575L58.9856 62.9077L48.6938 63.6667Z" fill="#CCDFFF"/>
<path d="M47.0146 57.9701C47.0146 57.9701 46.3029 55.1216 46.0413 53.2627C45.5942 50.0858 45.5976 48.0656 47.571 45.1511C49.1337 42.843 50.6322 41.8546 53.4302 41.96C55.767 42.048 56.9519 43.1743 58.5609 44.9048C60.17 46.6353 60.5518 50.6295 60.5518 50.6295L60.4968 56.357L59.7188 60.0894L60.5284 62.5508C60.4968 64.6989 60.17 66.5205 58.3788 67.9473C56.5876 69.3742 48.3141 71.2431 46.0413 71.1958C44.584 71.1654 42.3796 70.7404 41.8545 70.7385C41.3294 70.7366 40.2241 71.7726 39.9812 72.0458C39.8131 72.2349 39.2089 74.5757 38.8527 75.9996C38.804 76.1943 38.5264 76.1696 38.5159 75.9692C38.4489 74.6906 38.3836 72.6892 38.5847 72.0458C38.8883 71.0743 39.762 68.6016 40.133 68.008C40.504 67.4145 44.019 65.3365 44.019 65.3365C44.019 65.3365 46.8901 63.7608 47.3888 63.5149C47.8875 63.269 48.8938 62.1388 48.8938 62.1388L47.0146 57.9701Z" fill="#0247B8"/>
<path d="M51.8433 45.5448C51.8433 45.5448 50.0918 47.517 49.9387 47.8048C49.7857 48.0925 47.6909 52.8893 48.0968 55.1819C48.5027 57.4746 48.6429 58.4994 49.5779 59.8853C50.0195 60.5398 51.7696 61.8444 52.6698 62.1792C53.8462 62.6167 54.994 62.2702 55.6753 61.8756C56.9504 61.1369 57.8612 58.87 58.3469 57.5342C58.6693 56.6476 58.6809 54.3465 58.5291 53.4964C58.3773 52.6464 58.0737 52.4339 57.9479 51.9287C57.8221 51.4234 57.6849 50.392 57.3754 49.8534C57.066 49.3147 55.9492 48.1681 54.7038 47.2425C53.6305 46.4447 51.8433 45.5448 51.8433 45.5448Z" fill="#F5B67F"/>
</g>
</svg>
