<svg aria-hidden="true" data-icon-color="" data-icon-contrast="mid" role="img" viewBox="0 0 24 24" xmlns="http://www.w3.org/2000/svg" class="css-wew9bn"><path fill-rule="evenodd" clip-rule="evenodd" d="M12 1C7.58172 1 4 4.58172 4 9V13C2.34315 13 1 14.3431 1 16C1 17.6569 2.34315 19 4 19H9C9 20.6569 10.3431 22 12 22C13.6569 22 15 20.6569 15 19H20C21.6569 19 23 17.6569 23 16C23 14.3431 21.6569 13 20 13V9C20 4.58172 16.4183 1 12 1ZM6 9C6 5.68629 8.68629 3 12 3C15.3137 3 18 5.68629 18 9V13C18 14.1046 18.8954 15 20 15C20.5523 15 21 15.4477 21 16C21 16.5523 20.5523 17 20 17H4C3.44772 17 3 16.5523 3 16C3 15.4477 3.44772 15 4 15C5.10457 15 6 14.1046 6 13V9Z"></path></svg>