<svg aria-hidden="true" data-icon-color="" data-icon-contrast="mid" role="img" viewBox="0 0 24 24" xmlns="http://www.w3.org/2000/svg" class="css-wew9bn"><path fill-rule="evenodd" clip-rule="evenodd" d="M22 12C22 17.5228 17.5228 22 12 22C6.47715 22 2 17.5228 2 12C2 6.47715 6.47715 2 12 2C17.5228 2 22 6.47715 22 12ZM16.9634 18.2746C15.5995 19.3549 13.8751 20 12 20C10.1249 20 8.40053 19.3549 7.03662 18.2746C8.09319 16.926 9.90055 16 12 16C14.0994 16 15.9068 16.926 16.9634 18.2746ZM18.3723 16.8374C16.9017 15.0936 14.5752 14 12 14C14.2091 14 16 12.2091 16 10C16 7.79086 14.2091 6 12 6C9.79086 6 8 7.79086 8 10C8 12.2091 9.79086 14 12 14C9.42484 14 7.09825 15.0936 5.62769 16.8374C4.60629 15.494 4 13.8178 4 12C4 7.58172 7.58172 4 12 4C16.4183 4 20 7.58172 20 12C20 13.8178 19.3937 15.494 18.3723 16.8374ZM12 8C10.8954 8 10 8.89543 10 10C10 11.1046 10.8954 12 12 12C13.1046 12 14 11.1046 14 10C14 8.89543 13.1046 8 12 8Z"></path></svg>