<svg aria-hidden="true" data-icon-color="" data-icon-contrast="mid" role="img" viewBox="0 0 24 24" xmlns="http://www.w3.org/2000/svg" class="css-wew9bn"><path fill-rule="evenodd" clip-rule="evenodd" d="M12 7C9.23858 7 7 9.23858 7 12C7 14.7614 9.23858 17 12 17C14.7614 17 17 14.7614 17 12C17 9.23858 14.7614 7 12 7ZM9 12C9 10.3431 10.3431 9 12 9C13.6569 9 15 10.3431 15 12C15 13.6569 13.6569 15 12 15C10.3431 15 9 13.6569 9 12Z"></path><path fill-rule="evenodd" clip-rule="evenodd" d="M14.6227 2.66252C13.4798 0.604676 10.5204 0.604682 9.37745 2.66253L9.04982 3.25242C8.82405 3.65892 8.34786 3.85617 7.90077 3.72837L7.25199 3.54292C4.9887 2.89597 2.89607 4.98862 3.54301 7.2519L3.72846 7.90068C3.85626 8.34777 3.65901 8.82396 3.25251 9.04973L2.66261 9.37736C0.604768 10.5203 0.604774 13.4797 2.66262 14.6227L3.25251 14.9503C3.65901 15.176 3.85626 15.6522 3.72846 16.0993L3.54301 16.7481C2.89606 19.0114 4.98871 21.104 7.25199 20.4571L7.90077 20.2716C8.34786 20.1438 8.82405 20.3411 9.04982 20.7476L9.37745 21.3375C10.5204 23.3953 13.4798 23.3953 14.6227 21.3375L14.9504 20.7476C15.1761 20.3411 15.6523 20.1438 16.0994 20.2716L16.7482 20.4571C19.0115 21.104 21.1041 19.0114 20.4572 16.7481L20.2717 16.0993C20.1439 15.6522 20.3412 15.176 20.7477 14.9503L21.3376 14.6226C23.3954 13.4797 23.3954 10.5203 21.3376 9.37736L20.7477 9.04973C20.3412 8.82396 20.1439 8.34777 20.2717 7.90068L20.4572 7.2519C21.1041 4.98861 19.0115 2.89597 16.7482 3.54292L16.0994 3.72837C15.6523 3.85617 15.1761 3.65892 14.9504 3.25241L14.6227 2.66252ZM11.1259 3.6336C11.5069 2.94765 12.4933 2.94765 12.8743 3.6336L13.2019 4.22349C13.8793 5.44301 15.3078 6.03474 16.6491 5.65135L17.2979 5.4659C18.0523 5.25025 18.7498 5.9478 18.5342 6.70223L18.3487 7.35101C17.9654 8.69228 18.5571 10.1208 19.7766 10.7982L20.3665 11.1258C21.0524 11.5068 21.0524 12.4932 20.3665 12.8742L19.7766 13.2018C18.5571 13.8792 17.9654 15.3077 18.3487 16.649L18.5342 17.2978C18.7498 18.0522 18.0523 18.7498 17.2979 18.5341L16.6491 18.3487C15.3078 17.9653 13.8793 18.557 13.2019 19.7765L12.8743 20.3664C12.4933 21.0524 11.5069 21.0524 11.1259 20.3664L10.7983 19.7765C10.1209 18.557 8.69238 17.9653 7.3511 18.3487L6.70232 18.5341C5.94789 18.7498 5.25034 18.0522 5.46599 17.2978L5.65144 16.649C6.03483 15.3077 5.44311 13.8792 4.22358 13.2018L3.63369 12.8742C2.94774 12.4932 2.94775 11.5068 3.63369 11.1258L4.22358 10.7982C5.44311 10.1208 6.03484 8.69228 5.65144 7.35101L5.46599 6.70223C5.25034 5.9478 5.94789 5.25025 6.70232 5.4659L7.3511 5.65135C8.69237 6.03474 10.1209 5.44302 10.7983 4.22349L11.1259 3.6336Z"></path></svg>